<svg id="Capa_1" data-name="Capa 1" xmlns="http://www.w3.org/2000/svg" xmlns:xlink="http://www.w3.org/1999/xlink" viewBox="0 0 588.71 588.71"><defs><linearGradient id="Degradado_sin_nombre_16" x1="450.45" y1="525.14" x2="451.51" y2="525.14" gradientUnits="userSpaceOnUse"><stop offset="0.26" stop-color="#f29936"/><stop offset="0.75" stop-color="#f6ba37"/></linearGradient><linearGradient id="Degradado_sin_nombre_16-2" x1="134.94" y1="425.84" x2="227.94" y2="425.84" xlink:href="#Degradado_sin_nombre_16"/><linearGradient id="Degradado_sin_nombre_16-3" x1="113.35" y1="353.2" x2="170.44" y2="353.2" xlink:href="#Degradado_sin_nombre_16"/><linearGradient id="Degradado_sin_nombre_16-4" x1="388.02" y1="487.94" x2="462.11" y2="487.94" xlink:href="#Degradado_sin_nombre_16"/><linearGradient id="Degradado_sin_nombre_16-5" x1="468.33" y1="448.06" x2="503.08" y2="448.06" xlink:href="#Degradado_sin_nombre_16"/><linearGradient id="Degradado_sin_nombre_16-6" x1="214.65" y1="214.42" x2="222.96" y2="214.42" xlink:href="#Degradado_sin_nombre_16"/><linearGradient id="Degradado_sin_nombre_16-7" x1="221.2" y1="204.65" x2="302.81" y2="204.65" xlink:href="#Degradado_sin_nombre_16"/><linearGradient id="Degradado_sin_nombre_16-8" x1="213.92" y1="113.21" x2="214.28" y2="113.21" xlink:href="#Degradado_sin_nombre_16"/><linearGradient id="Degradado_sin_nombre_16-9" x1="375.73" y1="251.75" x2="375.73" y2="251.75" xlink:href="#Degradado_sin_nombre_16"/><linearGradient id="Degradado_sin_nombre_16-10" x1="328.3" y1="225.23" x2="354.36" y2="225.23" xlink:href="#Degradado_sin_nombre_16"/><linearGradient id="Degradado_sin_nombre_16-11" x1="282.66" y1="226.44" x2="340.34" y2="226.44" xlink:href="#Degradado_sin_nombre_16"/><linearGradient id="Degradado_sin_nombre_16-12" x1="384.26" y1="275.63" x2="438.92" y2="275.63" xlink:href="#Degradado_sin_nombre_16"/><linearGradient id="Degradado_sin_nombre_16-13" x1="258.73" y1="239.73" x2="333.47" y2="239.73" xlink:href="#Degradado_sin_nombre_16"/><linearGradient id="Degradado_sin_nombre_16-14" x1="364.98" y1="231.13" x2="391.35" y2="231.13" xlink:href="#Degradado_sin_nombre_16"/><linearGradient id="Degradado_sin_nombre_16-15" x1="380.21" y1="300.84" x2="439.36" y2="300.84" xlink:href="#Degradado_sin_nombre_16"/><linearGradient id="Degradado_sin_nombre_16-16" x1="374.25" y1="315.94" x2="421.33" y2="315.94" xlink:href="#Degradado_sin_nombre_16"/><linearGradient id="Degradado_sin_nombre_16-17" x1="296.52" y1="310.13" x2="347.38" y2="310.13" xlink:href="#Degradado_sin_nombre_16"/><linearGradient id="Degradado_sin_nombre_16-18" x1="265.68" y1="295.18" x2="337.85" y2="295.18" xlink:href="#Degradado_sin_nombre_16"/><linearGradient id="Degradado_sin_nombre_16-19" x1="250.97" y1="271.33" x2="325.85" y2="271.33" xlink:href="#Degradado_sin_nombre_16"/><linearGradient id="Degradado_sin_nombre_16-20" x1="344.4" y1="314.05" x2="384.75" y2="314.05" xlink:href="#Degradado_sin_nombre_16"/><linearGradient id="Degradado_sin_nombre_16-21" x1="373.04" y1="245.41" x2="423.1" y2="245.41" xlink:href="#Degradado_sin_nombre_16"/><linearGradient id="Degradado_sin_nombre_16-22" x1="181.44" y1="354.37" x2="282.64" y2="354.37" xlink:href="#Degradado_sin_nombre_16"/><linearGradient id="Degradado_sin_nombre_16-23" x1="166.65" y1="303.53" x2="253.22" y2="303.53" xlink:href="#Degradado_sin_nombre_16"/><linearGradient id="Degradado_sin_nombre_16-24" x1="239.42" y1="390.49" x2="334.44" y2="390.49" xlink:href="#Degradado_sin_nombre_16"/><linearGradient id="Degradado_sin_nombre_16-25" x1="170.44" y1="250.71" x2="260.45" y2="250.71" xlink:href="#Degradado_sin_nombre_16"/><linearGradient id="Degradado_sin_nombre_16-26" x1="187.51" y1="520.94" x2="218.26" y2="520.94" xlink:href="#Degradado_sin_nombre_16"/><linearGradient id="Degradado_sin_nombre_16-27" x1="360.07" y1="573.45" x2="360.34" y2="573.45" xlink:href="#Degradado_sin_nombre_16"/><linearGradient id="Degradado_sin_nombre_16-28" x1="200.8" y1="468.08" x2="309.65" y2="468.08" xlink:href="#Degradado_sin_nombre_16"/><linearGradient id="Degradado_sin_nombre_16-29" x1="288.56" y1="500.92" x2="394.25" y2="500.92" xlink:href="#Degradado_sin_nombre_16"/><linearGradient id="Degradado_sin_nombre_16-30" x1="117.16" y1="489.17" x2="186.88" y2="489.17" xlink:href="#Degradado_sin_nombre_16"/><linearGradient id="Degradado_sin_nombre_16-31" x1="106.33" y1="408.92" x2="122.2" y2="408.92" xlink:href="#Degradado_sin_nombre_16"/><linearGradient id="Degradado_sin_nombre_16-32" x1="124.14" y1="282.88" x2="167.79" y2="282.88" xlink:href="#Degradado_sin_nombre_16"/><linearGradient id="Degradado_sin_nombre_16-33" x1="325.14" y1="406.37" x2="394.26" y2="406.37" xlink:href="#Degradado_sin_nombre_16"/><linearGradient id="Degradado_sin_nombre_16-34" x1="403.56" y1="442.16" x2="403.58" y2="442.16" xlink:href="#Degradado_sin_nombre_16"/><linearGradient id="Degradado_sin_nombre_16-35" x1="397.8" y1="398.06" x2="459.14" y2="398.06" xlink:href="#Degradado_sin_nombre_16"/><linearGradient id="Degradado_sin_nombre_16-36" x1="434.35" y1="366.36" x2="498.26" y2="366.36" xlink:href="#Degradado_sin_nombre_16"/><linearGradient id="Degradado_sin_nombre_16-37" x1="445.2" y1="318.29" x2="503.08" y2="318.29" xlink:href="#Degradado_sin_nombre_16"/><linearGradient id="Degradado_sin_nombre_16-38" x1="364.57" y1="213.94" x2="413.18" y2="213.94" xlink:href="#Degradado_sin_nombre_16"/><linearGradient id="Degradado_sin_nombre_16-39" x1="415.22" y1="249.97" x2="463.62" y2="249.97" xlink:href="#Degradado_sin_nombre_16"/><linearGradient id="Degradado_sin_nombre_16-40" x1="299.18" y1="198.47" x2="353.46" y2="198.47" xlink:href="#Degradado_sin_nombre_16"/></defs><rect width="588.71" height="588.71" fill="#2c2a69"/><path d="M451.45,524.74h0a9.86,9.86,0,0,0-1,.78h1.06Z" transform="translate(-11.59 -101.56)" fill="url(#Degradado_sin_nombre_16)"/><path d="M193.85,385.55c3.86,4.67,7.74,9.31,12.72,12.88,4.49,5.31,10.22,9.2,15.48,13.63,7.65,6.37,7.13,3.66,2.54,12.36-10.33,19.61-19.79,39.62-28.54,60-.71,1.66-.8,5-4.22,2.25-21.54-17.24-41.25-36.17-56.06-59.74a4.09,4.09,0,0,1-.14-4.75c10.53-19.93,22.87-38.62,37.86-55.49,3.35-3.77,3.32-3.62,6,.54C183.81,373.71,188.24,380.09,193.85,385.55Z" transform="translate(-11.59 -101.56)" fill="url(#Degradado_sin_nombre_16-2)"/><path d="M129.7,410c-.8,0-1.35,2.29-2.47-.06-7.57-16-14.7-32.2-13.8-50.3.61-12.3,3.68-23.93,12.68-33.67s17.66-20,28.35-28.13c1.24-.94,2.35-2.2,4.51-2.42a120,120,0,0,0,2.48,27,106.23,106.23,0,0,0,8.09,24.54c1.43,2.9,1.2,5-1,7.48a271.14,271.14,0,0,0-31.16,42l0,.17a69.45,69.45,0,0,0-6.68,11.7l0,0a2.16,2.16,0,0,0-.95,1.82Z" transform="translate(-11.59 -101.56)" fill="url(#Degradado_sin_nombre_16-3)"/><path d="M391.94,529.67a7,7,0,0,0,1.06-2.28A12.15,12.15,0,0,0,391.94,529.67Zm1.18-7.81a8.69,8.69,0,0,0-.74-2.36l-.63,2.2c-1.17,4-2.41,8-3.73,11.94.79-2.41,2.58-4.27,3.64-6.53a7.48,7.48,0,0,0,1.35-2.75,9,9,0,0,0-.92-2.32ZM460.67,439l-7,4.33A139.31,139.31,0,0,1,410,461.19c-4.66,1-6.82,2.06-7.45,7.58a317.1,317.1,0,0,1-6.68,37.58q-.72,3-1.53,6.07a10,10,0,0,1,1.55,1.14l.39.38c4.68-.86,9.37-1.66,14-2.59,1.63-.34,2.45-.17,2.27,1.74a13.66,13.66,0,0,0,.06,3.67c.28,1.56-.33,2.15-1.76,2.49s-2.75.64-4.12,1a2.78,2.78,0,0,1,.06,1,12.15,12.15,0,0,0,.06,3.3c.25,1.4-.3,1.94-1.59,2.23-3.43.81-6.84,1.68-10.26,2.52,4.55-.51,9.09-1,13.62-1.64,3.91-.54,4.12-.67,4.27,2.72,0,.28,0,.59.05.93.08,1.87-.46,2.51-2.34,2.84l-3.74.67a7.71,7.71,0,0,1,.24,2q7-2.42,13.69-5.5c0-1.4,0-2.79,0-4.19,0-1,.52-1.26,1.42-1.25,2,0,3.92,0,5.89,0,0-.55,0-1.1,0-1.64v-1.75l-1-.06,1-.1v-3c-.76-.06-1.52-.13-2.29-.24l2.38-.2c.2-.56.72-.69,1.47-.68,2.59,0,5.18,0,7.76,0v-.14h2.78c1.3,0,2.61,0,3.91,0,2.3-1.58,4.57-3.22,6.83-4.92h0l1.24-.94c.32-.25.61-.49.89-.74a13.08,13.08,0,0,0,2.16-2.41,14.29,14.29,0,0,0,2.15-5H426.53a3,3,0,0,1,2.66-1.05q14.26-.31,28.54-.67c.24-1.22.48-2.44.71-3.67a188.29,188.29,0,0,0,3.18-24.18C462.24,462.92,462.59,451.22,460.67,439Z" transform="translate(-11.59 -101.56)" fill="url(#Degradado_sin_nombre_16-4)"/><path d="M501.88,414.81a203.69,203.69,0,0,1-7,35.93,237.3,237.3,0,0,1-7.73,23.45c-1.28,3.21-2.67,6.38-4.2,9.48-1.74,3.53-3.63,7-5.68,10.32-.59.94-5.75,9.4-6,9.4l-3-1.3c3.85-20.73,5.24-41.59,2.36-62.57-.64-4.68-.07-8.28,3.89-10.88,10.79-9.9,19.17-21.93,27.92-35.23l.45-.68c0,.1,0,.22,0,.32C503.38,401.17,502.51,408,501.88,414.81Z" transform="translate(-11.59 -101.56)" fill="url(#Degradado_sin_nombre_16-5)"/><path d="M214.72,215.33l6.49-2.72c-.11,1.33,1,1.82,1.75,2.57-2.79,0-5.44,1.61-8.31.83A2.58,2.58,0,0,1,214.72,215.33Z" transform="translate(-11.59 -101.56)" fill="url(#Degradado_sin_nombre_16-6)"/><path d="M295.46,198l7.29,3.23c.34,1.59-.94,1.47-1.85,1.78-8.6,3-16.86,6.63-24.17,12.13-1.88,1.41-3.85.95-5.88.62a162.17,162.17,0,0,0-45-1l-.22-.09-.15.19-2.53.35c-.75-.75-1.87-1.24-1.76-2.57,17.64-9.51,36.54-15.38,56.12-19.25,3-.6,5.73.89,8.52,1.64C289.08,195.87,292.26,197,295.46,198Z" transform="translate(-11.59 -101.56)" fill="url(#Degradado_sin_nombre_16-7)"/><polygon points="213.91 113.27 214.06 113.08 214.28 113.17 214.13 113.34 213.91 113.27" fill="url(#Degradado_sin_nombre_16-8)"/><path d="M375.73,251.75" transform="translate(-11.59 -101.56)" fill="url(#Degradado_sin_nombre_16-9)"/><path d="M354.36,240.06V213.81a.82.82,0,0,0-.64-.8c-3.19-.68-17.43-3.65-24.63-3.4a.82.82,0,0,0-.6,1.34l24.42,29.63A.82.82,0,0,0,354.36,240.06Z" transform="translate(-11.59 -101.56)" fill="url(#Degradado_sin_nombre_16-10)"/><path d="M282.78,219.84c2.09-1.74,11.68-9,27.82-9a.41.41,0,0,1,.19,0c1.36.87,19.32,12.52,29.51,30.6a.35.35,0,0,1-.43.49l-57-21.58A.34.34,0,0,1,282.78,219.84Z" transform="translate(-11.59 -101.56)" fill="url(#Degradado_sin_nombre_16-11)"/><path d="M438.83,290.91c.3-3.77.36-15.61-8.8-27.56a.8.8,0,0,0-.44-.3c-2.57-.72-23-6.05-44.65-1.87a.82.82,0,0,0-.25,1.53l52.93,28.86A.82.82,0,0,0,438.83,290.91Z" transform="translate(-11.59 -101.56)" fill="url(#Degradado_sin_nombre_16-12)"/><path d="M270.94,227.93s-12.45,12.7-12.21,19.66c0,0,59,2.95,74,3.94a.64.64,0,0,0,.35-1.2C323.68,245.14,290,227.45,270.94,227.93Z" transform="translate(-11.59 -101.56)" fill="url(#Degradado_sin_nombre_16-13)"/><path d="M366.06,216.84A174.61,174.61,0,0,1,391,228.12a.81.81,0,0,1,0,1.38l-24.76,15.84a.81.81,0,0,1-1.24-.68V217.59A.8.8,0,0,1,366.06,216.84Z" transform="translate(-11.59 -101.56)" fill="url(#Degradado_sin_nombre_16-14)"/><path d="M439.36,305.36S433.74,327,425.8,328.81c-.86.05-41.94-52.48-45.55-55.41C379,270.4,409,280,439.36,305.36Z" transform="translate(-11.59 -101.56)" fill="url(#Degradado_sin_nombre_16-15)"/><path d="M421,337.67c-3.29,2-19.88,11.94-27.32,11.3a.69.69,0,0,1-.61-.53c-1.46-5.4-14.15-55.45-18.73-64.52a.72.72,0,0,1,1-.95c6.66,3.62,30.78,25.08,45.93,53.74A.73.73,0,0,1,421,337.67Z" transform="translate(-11.59 -101.56)" fill="url(#Degradado_sin_nombre_16-16)"/><path d="M346.35,275.15a.65.65,0,0,1,1,.6c-1.26,9.38-7.74,65.59-12.09,69.11-4,3.23-33.55-14.86-38.47-17.91a.64.64,0,0,1-.13-1C301.5,320.75,337.83,281.53,346.35,275.15Z" transform="translate(-11.59 -101.56)" fill="url(#Degradado_sin_nombre_16-17)"/><path d="M337.34,269.77a.5.5,0,0,1,.35.87c-6.75,6.31-45.41,50.28-46.55,49.94-21.43-6.35-25.21-26.14-25.45-27.55a.49.49,0,0,1,.15-.47C269.77,289.21,325.58,269.74,337.34,269.77Z" transform="translate(-11.59 -101.56)" fill="url(#Degradado_sin_nombre_16-18)"/><path d="M325.33,261a.7.7,0,0,1,0,1.35c-11.43,3.47-64.65,23.6-65.11,22.53A194,194,0,0,1,251,259.17C249.68,257,311.47,257.1,325.33,261Z" transform="translate(-11.59 -101.56)" fill="url(#Degradado_sin_nombre_16-19)"/><path d="M358.89,279a.7.7,0,0,1,1.3-.23c5.19,9.21,24.42,63.48,24.56,70.22,0,2-33.81-1.11-39.72-1.68a.7.7,0,0,1-.61-.88C346.25,339.57,356.81,290.69,358.89,279Z" transform="translate(-11.59 -101.56)" fill="url(#Degradado_sin_nombre_16-20)"/><path d="M373.85,253.21c9.74,0,47.36.19,49.25,1.75,0,0-13.63-17.77-19.91-19.06-3.57-.73-23.48,11.4-29.8,15.85A.8.8,0,0,0,373.85,253.21Z" transform="translate(-11.59 -101.56)" fill="url(#Degradado_sin_nombre_16-21)"/><path d="M257.26,300.84l25.38,29.52L231.18,407.9s-41.51-32.62-49.74-53.53C181.44,354.37,230.15,309.39,257.26,300.84Z" transform="translate(-11.59 -101.56)" fill="url(#Degradado_sin_nombre_16-22)"/><path d="M246.94,261.63c.47,5.56.81,11.17,2.14,16.61,1,4.33,3,8.37,4.14,12.68L226.66,307a177.12,177.12,0,0,0-20,13.92L191,333.55l-15,12.11s-13.42-14.45-8.19-57C167.86,288.63,226,258.44,246.94,261.63Z" transform="translate(-11.59 -101.56)" fill="url(#Degradado_sin_nombre_16-23)"/><path d="M291.76,336.72l42.68,21.43-24.7,86.11s-55.3-14.18-70.32-30.9C239.42,413.36,269.36,354.2,291.76,336.72Z" transform="translate(-11.59 -101.56)" fill="url(#Degradado_sin_nombre_16-24)"/><path d="M183.9,233.77S168.46,267,170.65,275.19c0,0,49.27-22.64,77.32-22.64,0,0,7.46-20.9,12.48-26.11C260.45,226.44,208.47,224.25,183.9,233.77Z" transform="translate(-11.59 -101.56)" fill="url(#Degradado_sin_nombre_16-25)"/><path d="M218.26,518.62l-.42.67c-2.21,3.53-3.72,7.43-5.49,11.19a22.75,22.75,0,0,1-3.54,5.39,1.66,1.66,0,0,0-.79-.15c-2.25,0-4.49,0-6.73,0,0-.39,0-.79,0-1.19,0-1-.32-1.43-1.36-1.42-3.6,0-7.19,0-10.78,0a3.76,3.76,0,0,0-1.66.32l1.18-3.39,6.43-18.67L197,506s2.14,1.34,5.74,3.52c1.52.91,3.27,2,5.26,3.13s4.38,2.58,6.87,4Z" transform="translate(-11.59 -101.56)" fill="url(#Degradado_sin_nombre_16-26)"/><path d="M360.07,573.43h.27l0,.05Z" transform="translate(-11.59 -101.56)" fill="url(#Degradado_sin_nombre_16-27)"/><path d="M309.65,454.07l-.52,1.29-.83,2L308,458l-3.82,9.33-1.63,4-1.74,4.26-2.88,7L296.59,486H269.74c-2.29,0-3,.76-3,3.11,0,5-.05,10,0,15,0,1.35-.41,1.9-1.77,2.13-7.59,1.31-15.09,3.1-22.6,4.78-.36.07-.9.3-1,0-.66-1.66-2-1-3.12-1-5-.07-10,0-15,0-1.8,0-2.49.4-2.56,1.9-2.21-1.13-4.31-2.28-6.27-3.43-.81-.47-1.59-.93-2.33-1.4-4.66-2.9-8.28-5.78-10.18-8.48a8.72,8.72,0,0,1-1.15-2.12l34.38-72.19s6.64,3.37,16.2,7.87c2.69,1.25,5.61,2.6,8.67,4,10.18,4.61,22,9.64,32.41,13.25a123.73,123.73,0,0,0,14.24,4.15l.14,0H307C307.89,453.77,308.8,453.93,309.65,454.07Z" transform="translate(-11.59 -101.56)" fill="url(#Degradado_sin_nombre_16-28)"/><path d="M394.25,463l0,.11-.27,1.24-.82,3.78-10,46h0l-.63,2.92-5.75,26.4s-69.28,3.62-88.16-8.43l9.77-26.1c8.75-1.18,17.54-2.13,26.36-2.73,6.4-.44,12.77-1.08,19.2-.78a57.64,57.64,0,0,1,8.65,1.12v-2c0-.46,0-.95,0-1.45,0-3.51,0-7.59,0-9.32,0-1.93-.42-2.79-1.78-3.07,0-.54,0-1,0-1.37,0-2.55-.69-3.3-3.21-3.31H306.92l1.26-3.35,2.39-6.37.15-.42,5.64-15.07,1.08-2.88s2.2.39,5.91.95l.34.05h0c3.14.49,7.3,1.1,12.09,1.72h0c12.64,1.64,29.66,3.41,44,3.32,1,0,2,0,2.92,0h0c2.79-.07,5.44-.21,7.92-.47C391.89,463.29,393.1,463.13,394.25,463Z" transform="translate(-11.59 -101.56)" fill="url(#Degradado_sin_nombre_16-29)"/><path d="M186.88,499.27l-1,2.61L181,514.62l-10.57,27.57s-8.12-9.29-18.09-22.43c-3.19-4.21-6.57-8.8-9.92-13.61-11.1-15.89-22-34.13-25.27-48.27l9.3-21.74S176.81,496.17,186.88,499.27Z" transform="translate(-11.59 -101.56)" fill="url(#Degradado_sin_nombre_16-30)"/><path d="M106.71,378.82s10.46,44.42,15.49,45.45L113.35,439S104.39,388.89,106.71,378.82Z" transform="translate(-11.59 -101.56)" fill="url(#Degradado_sin_nombre_16-31)"/><path d="M167.79,249.83s-38.62,46.06-43.65,66.11c0,0,26.72-30.13,34.85-32.62C159,283.32,165.86,253.78,167.79,249.83Z" transform="translate(-11.59 -101.56)" fill="url(#Degradado_sin_nombre_16-32)"/><path d="M344.4,360.23s34,2.71,41.23,1.94S394.26,452,394.26,452s-60.6,2.54-69.12-4C325.14,448.06,340.42,364.49,344.4,360.23Z" transform="translate(-11.59 -101.56)" fill="url(#Degradado_sin_nombre_16-33)"/><path d="M403.56,442.05a.53.53,0,0,1,0,.22Z" transform="translate(-11.59 -101.56)" fill="url(#Degradado_sin_nombre_16-34)"/><path d="M458.87,423.62c0-.25-.07-.51-.11-.77A92.25,92.25,0,0,0,456,410.6c-8.5-29.21-30.14-64.94-30.14-64.94-3.1,4.8-28,14.57-28,14.57l5,71.21.39,5.56.32,4.55a1.42,1.42,0,0,1,1.54-1.37c.79,0,.53.71.57,1.18a1.56,1.56,0,0,1-1.6,1.84.64.64,0,0,1-.4-.11l.52,7.38a86,86,0,0,0,14.6-3.35c1.1-.35,2.17-.71,3.24-1.09a146.07,146.07,0,0,0,34.94-18.55c.72-.51,1.27-.92,1.64-1.2s.57-.44.57-.44C459.07,425.12,459,424.37,458.87,423.62Zm-54,14c-.86.08-.74-.67-.76-1.2a1.67,1.67,0,0,1,1.52-2c.92-.14.8.54.81,1.23A1.6,1.6,0,0,1,404.9,437.64Zm4.77,3.67c-.79.07-.66-.61-.69-1.1a1.53,1.53,0,0,1,1.39-1.84c.85-.13.74.49.75,1.12A1.48,1.48,0,0,1,409.67,441.31Zm1.29-5.69c-1.07.09-.76-.73-.81-1.13-.09-1.33.53-2,1.62-2s.59.88.65,1.38A1.44,1.44,0,0,1,411,435.62Zm4.28,3.83c-1,.09-.7-.66-.75-1-.08-1.23.5-1.82,1.5-1.88s.53.82.59,1.28A1.32,1.32,0,0,1,415.24,439.45Zm1.61-5.82c-1.06,0-.57-.92-.65-1.44-.17-1.14.6-1.64,1.54-1.76,1.16-.16.49.87.7,1.15C418.58,432.94,418,433.6,416.85,433.63Zm3.81,4c-1,0-.54-.83-.6-1.31-.16-1.06.55-1.5,1.4-1.62,1.07-.14.46.8.65,1.06C422.24,437,421.69,437.6,420.66,437.62Zm2.16-6c-.85.05-.52-.81-.59-1.3a1.6,1.6,0,0,1,1.58-2c1-.12.6.72.66.91C424.66,430.88,424,431.6,422.82,431.65Zm3.32,4.17c-.79,0-.48-.76-.55-1.21a1.46,1.46,0,0,1,1.45-1.78c.88-.12.55.66.61.84C427.83,435.11,427.2,435.76,426.14,435.82Zm2.8-6.17c-.91.11-.69-.7-.74-1.2a1.64,1.64,0,0,1,1.49-2c.9-.14.85.49.84,1.22A1.65,1.65,0,0,1,428.94,429.65Zm2.81,4.32c-.83.1-.63-.64-.68-1.1a1.52,1.52,0,0,1,1.37-1.85c.83-.13.78.45.77,1.12A1.51,1.51,0,0,1,431.75,434Z" transform="translate(-11.59 -101.56)" fill="url(#Degradado_sin_nombre_16-35)"/><path d="M498.26,378.82s-8,22.85-29.93,37.95c0,0-1.5-4.88-3.95-12.21-6.67-20-20.39-58.06-30-64.85,0,0,12.4-15.39,13.95-23.77,0,0,47.17,45.32,49.92,62.7A1.16,1.16,0,0,1,498.26,378.82Z" transform="translate(-11.59 -101.56)" fill="url(#Degradado_sin_nombre_16-36)"/><path d="M445.2,272.87s5.9,16,6.2,31.2c0,0,43.32,44.93,51.68,59.65,0,0-11.62-58.1-28.94-77.46Z" transform="translate(-11.59 -101.56)" fill="url(#Degradado_sin_nombre_16-37)"/><path d="M404.54,226.44l8.64-2.39s-14.55-13.7-48.2-22.61l-.41,6.2Z" transform="translate(-11.59 -101.56)" fill="url(#Degradado_sin_nombre_16-38)"/><path d="M438.92,261.64l24.7,8.6S452,249.92,424.5,230.15a2.4,2.4,0,0,0-2.4-.22l-6.18,2.93a1.21,1.21,0,0,0-.4,1.89Z" transform="translate(-11.59 -101.56)" fill="url(#Degradado_sin_nombre_16-39)"/><path d="M299.18,193.22s12.59,5.43,13.89,8.22-1.57,0-1.57,0,32.62-1.59,42,3.21v-6.93S316.11,189.59,299.18,193.22Z" transform="translate(-11.59 -101.56)" fill="url(#Degradado_sin_nombre_16-40)"/><path d="M281.91,595.54c-.14.24-.44.33-.58.18s.18-.29.28-.44Z" transform="translate(-11.59 -101.56)" fill="#1f3964"/><path d="M366.52,559.75l-.31.3Z" transform="translate(-11.59 -101.56)" fill="#f6fafc"/><path d="M367.77,555.83h0Zm0,0h0Zm0,0h0Zm0,0h0Zm0,0h0Zm0,0h0Zm0,0h0Zm135.3,4.79a49.83,49.83,0,0,0-.92-10.08c-.84-4-.2-8.13-1.33-12.3-1.81-6.63-2.42-13.59-4.31-20.25A19.41,19.41,0,0,0,478,504.14H426.53a3,3,0,0,1,2.66-1.05q14.26-.31,28.54-.67l6.23-.14,1.73,0c.67,0,1.74.49,2-.55.19-.86-.52-1.58-1.25-2.05l-.06,0a3.59,3.59,0,0,0-1.71-.68l-6.21-.17h0c-12.3-.09-24.59,0-36.9-.06a17.09,17.09,0,0,0-5.51.88c-5.27,1.78-10.55,3.5-15.8,5.34-.71.26-1.43.5-2.15.74l-2.23.71a65.55,65.55,0,0,0-7.79,2.88,4.37,4.37,0,0,0,1.94,1.12c1.45.69,3,1.25,4.32,2.07a10,10,0,0,1,1.55,1.14l.39.38c4.68-.86,9.37-1.66,14-2.59,1.63-.34,2.45-.17,2.27,1.74a13.66,13.66,0,0,0,.06,3.67c.28,1.56-.33,2.15-1.76,2.49s-2.75.64-4.12,1c-3.13.77-6.25,1.57-9.38,2.34a13.12,13.12,0,0,1-1.52.18c-.78,1.63-1.9,3.08-2.82,4.64a12.15,12.15,0,0,0-1.06,2.28h0l3.05-.35c4.55-.51,9.09-1,13.62-1.64,3.91-.54,4.12-.67,4.27,2.72,0,.28,0,.59.05.93.08,1.87-.46,2.51-2.34,2.84l-3.74.67c-6.92,1.28-13.82,2.67-20.73,4-.44.09-.87.35-1.23-.13-1.93,2.18-3.84,4.37-5.77,6.55,4.19-.13,8.39-.22,12.59-.38,5-.2,10.06-.44,15.09-.66l1.17-.06c.65,0,1.3,0,1.94-.07,2.61-.24,3.15-.29,3.26,1.43h0c0,.43,0,1,.05,1.66,0,3.25,0,3.36-3.17,3.77l-2.67.34c-7.05.89-14.11,1.71-21.16,2.56l-4.43.55c-3.51.44-7,.86-10.55,1.28-1.13.13-2.28.09-3.43.13l-.33.32-.17.13c-.15.11-.29.23-.43.35l-.11.09h0a18.41,18.41,0,0,0-1.92,1.93c-.3.34-.58.68-.87,1l1.57.08h.35l12.39.57.88,0q6.55.3,13.1.62c6.08.29,12.16.65,18.23,1l.59,0c.37,0,.75,0,1.12.06,1,.05,1.46.34,1.37,1.35,0,.13,0,.26,0,.39-.09,1.79.79,4-.27,5.27s-3.3.4-5,.47q-6.42.22-12.86.42l-10.4.31c-3.47.11-6.94.21-10.4.33l-13.67.43-4.15.14h-.1c-.5,0-.9.07-1.06-.51l-.1.09a3.32,3.32,0,0,0-.72,1.7l1,.24c1.38.32,2.76.55,4.15.75h.1l.25,0c2.75.38,5.51.63,8.27,1l3.19.44.83.12,8.68,1.15,1.39.18h0c3.56.45,7.13.91,10.68,1.39q12,1.62,24,3.31c1,.13,1.47-.11,1.41-1.2a28.72,28.72,0,0,1,.35-6c.49-3.14.94-6.35,3.26-8.74a4.31,4.31,0,0,0,1.19-3.28c0-1.54-.31-3.14.4-5.06.81,1.44.42,2.64.63,3.73.41,2.18,1,4.46-1.27,6.16a4.38,4.38,0,0,0-1,1.64c-2,4.1-2.09,8.48-2.07,12.9,0,1.54.46,2.6,2.1,2.55s1-1.52,1-2.37a30.62,30.62,0,0,1,1.2-10.16c1.1-3.3,3.65-5,6.6-4.54-4,2-5.2,3.53-6.17,7.54a32.91,32.91,0,0,0-.44,9.08c.05,1.18,1.18,2.62.33,3.4s-2.34,0-3.56-.16l-30.09-3.07c-1.83-.18-3.66-.31-5.49-.45,11.09,3.21,22.19,6.17,33.34,9,5.48,1.38,10.82,3.45,16.67,3.12,3.17-.18,5.34-1.44,6.44-4.34a1.94,1.94,0,0,1,2.13-1.45q13.77-.15,27.57-.41a2.75,2.75,0,0,1,2.48,1.13,6.69,6.69,0,0,0,6.07,2.78,21.53,21.53,0,0,1,3.5,0,5.66,5.66,0,0,0,5.4-2.79,2.59,2.59,0,0,1,2.2-1.28c2.18-.15,4.38-.33,6.56-.61,2.5-.32,3.37-1.36,3.37-3.85,0-6.29,0-12.57,0-18.85,0-.61-.29-1.38.39-1.79C503.14,563,503.09,561.79,503.07,560.62Zm-42-42.8h11.49v-.13c6.48,0,12.95,0,19.42,0,1.44,0,2,.41,2.31,1.85,1.28,6.21,2,12.49,2.91,18.75.18,1.29-.58,1.34-1.5,1.37-4.26.12-8.53.21-12.79.4-9.44.41-18.9.21-28.34.28-1.75,0-2.28-.71-2.33-2.25-.08-2.37-.19-4.75-.33-7.12-.1-1.8-.22-3.6-.38-5.39,0-.26,0-.51-.06-.78h0c0-.15,0-.31,0-.46-.12-1.54-.27-3.08-.43-4.61s.23-1.92,1.76-1.9C455.51,517.81,458.27,517.82,461.05,517.82ZM496.47,550c-.66,1.93-.66,1.94-2.36,2-9,.23-17.94.39-26.91.74-2.41.09-3.95-1.07-5.61-2.51,11.12,1.34,22.14-.13,33.13.19A3.08,3.08,0,0,0,496.47,550ZM456.7,563.26c-.83,0-1.51-.39-1.56-1-.17-2-.18-4-.21-6,0-.34.22-.65.63-.49a1.35,1.35,0,0,1,.9,1.15A34.09,34.09,0,0,1,456.7,563.26ZM432,588.14c-1.26.41-2.09-.34-2.75-1.28-1.52-2.09-1.63-4.57-1.86-7,.24-1.9.39-3.79,1.52-5.38.81-1.14,1.9-1.6,3.16-.74.67.46,1.29.77.05,1.73-2.48,1.93-1.92,4.89-1.63,7.57a5.1,5.1,0,0,0,1.87,3.72C433.55,587.64,432.66,587.94,432,588.14Zm-3-25.69c-.88,0-1.67.12-1.63-1.21s.82-1.07,1.59-1.09c5.95-.12,9.64,2.62,10.74,8.07C437.37,564,433.64,562.38,429,562.45Zm15.24-6.72c-5.14-.47-10.3-.69-15.47-1.2,4-.32,7.94-.69,11.92-.91,1.31-.07,1.77-.41,1.76-1.79-.05-3.31,0-3.31-3.25-4.2-1.72-.47-3.45-.93-5.18-1.42l-1.47-.44c-1.39-.4-2.76-.83-4.12-1.29l4.77.74h0l1.69.27,2.42.4c2.46.42,4.9,1,7.36,1.38.84.14.83.64.83,1.24,0,2,0,4,0,6C445.57,555.48,445.16,555.82,444.27,555.73Zm1.32-16.88-2-.59-1.84-.53c-1.29-.38-2.6-.76-3.91-1.12-2-.57-4-1.12-6-1.68l-1.13-.32c-2.05-.55-2.48-2.21-2.54-3.9s-.07-3.18-.06-4.77c0-.55,0-1.1,0-1.64v-1.91c0-.92,0-1.83,0-2.74a2.53,2.53,0,0,1,0-.28,1.43,1.43,0,0,1,.09-.44c.2-.56.72-.69,1.47-.68,2.59,0,5.18,0,7.76,0v-.14h2.78c1.3,0,2.61,0,3.91,0l1.07,0c1.16,0,1.56.33,1.62,1.52.14,2.44.2,4.88.22,7.31,0,2.77,0,5.55.09,8.31,0,.81,0,1.62,0,2.42C447.19,538.93,446.87,539.22,445.59,538.85Zm17.35,37.95c-2.13-.06-4.27,0-6.41,0s-4.26,0-6.4,0c-1.08,0-1.45-.43-1.52-1.49-.29-4.33-.32-4.33,4.06-4.32,2.2,0,4.4,0,6.6,0a4.84,4.84,0,0,1,4.86,4.38C464.27,576.35,464,576.82,462.94,576.8Zm30-13.14c-7.48.29-15,.54-22.43,1.06-2.45.17-4-1-5.62-2.45,4.43,1.6,9,.45,13.43.52s9.16-.22,13.74-.38c1.09,0,2.17-.24,3.32-.37A2.33,2.33,0,0,1,493,563.66Zm.47-5.44c-7.89.16-15.78.35-23.65.74a7.22,7.22,0,0,1-6.42-2.62c5.71,1.73,11.4.49,17,.57,4.65.06,9.31-.34,13.95-.55.5,0,1-.12,1.56-.18C495.5,557.43,494.92,558.18,493.45,558.22Zm7.33,14.12c-.4,1,.78,2.86-1.45,2.94-1,0-2.45.52-2.94-.31s.12-2.21.66-3.27l.1-.16a3,3,0,0,1,3.14-1.8C501.3,570,500.46,571.45,500.78,572.34Zm.65-15.82a15.54,15.54,0,0,1,0,1.93h0c0,1,0,1.94,0,2.89a1.18,1.18,0,0,1-1.32,1.13c-.86,0-.55-.73-.56-1.15,0-1.55,0-3.09,0-4.63,0-1,.31-1.83,1.28-1.83S501.35,555.92,501.43,556.52Zm-133.66-.69h0Zm0,0h0Zm0,0h0Zm0,0h0Zm0,0h0Zm0,0h0Zm0,0h0Zm0,0h0Z" transform="translate(-11.59 -101.56)" fill="#ececec" stroke="#2c2a69" stroke-miterlimit="10" stroke-width="0.82"/><path d="M461,423.31c-.76-.17-1.51-.33-2.27-.46a21.23,21.23,0,0,0-2.4-.27l-.36,0a43.43,43.43,0,0,0-11.13,1.16c-.35.08-1,.7-1.24-.14a1.12,1.12,0,0,1,.66-1.41,6.22,6.22,0,0,1,2.54-.7c.64-.06,1.37.16,2.12-.52a14.35,14.35,0,0,0-9.59-.45c-.95.26-1.87.82-2.94.49-1.3,1.18-3,1.17-4.58,1.62l-1.8.6-27.23,8.23-5,1.5-4,1.23-6,1.82-3.88,1.18a5.28,5.28,0,0,1-2.61.2c-17.45-3.23-34.91-6.4-52.36-9.67q-6.23-1.14-12.44-2.33l-1.3-.25-9.18-1.75a32.49,32.49,0,0,0-4.77-.62,15,15,0,0,0-8.84,2.12,42,42,0,0,1-4.16,1.84c-.93.44-2,.56-2.82,1.43a4.19,4.19,0,0,0,.41.19l12.41,4.85,13.16,5.16,2.46,1,12,4.68,10.69,4.17a15.07,15.07,0,0,1,2.44,1.23h0c1.13.68,2.2,1.48,3.32,2.29l1.28.87c-6.55,2.07-12.89,4.07-19.19,6.1l-.75.23h0l-5.88,1.89a1.94,1.94,0,0,1-1.45,0,3.55,3.55,0,0,1-.75-.45l-4.71-3.59-1.77-1.35c-.81-.6-1.62-1.22-2.43-1.84q-4.49-3.39-8.91-6.88a4.56,4.56,0,0,0-4.78-.87c-1.26.4-1.59.71-1.11,2,.19.53.38,1.05.56,1.57L293,451c.5,1.39,1,2.78,1.47,4.17,1.14,3.27,2.27,6.55,3.45,9.81.54,1.5.28,1.74-1.31,1.6l-6.58-.59c-6.15-.52-12.3-1-18.44-1.52-2-.17-3.64.65-5.63,1.36l22.3,4.48,3.53.71c.62.13,1,0,.84,1.1a2.26,2.26,0,0,0,2.2,2.85l2.27.26c1.24.13,2.47.25,3.71.35,2.29.2,4.59.36,6.9.51.93.06,1.88.12,2.82.16a134.53,134.53,0,0,0,28.27-1.64c8.44-1.43,16.65-3.8,24.89-6.05,1.32-.36,1.54-.16,1.26,1.15-.9,4.2-1.7,8.41-2.58,12.91,2.53-.57,4.84-1.19,7.18-1.56a6.67,6.67,0,0,0,3.61-1.89c3.26-3,6.6-6,9.89-8.93l3.8-3.43,3.75-3.4,1.43-1.29-.17-.39-4.11,1-5.07,1.19h0l-8.12,1.91c1.71-.69,3.46-1.3,5.2-1.87,2.76-.89,5.54-1.69,8.29-2.57l1.73-.56c7.41-2.48,14.94-4.64,22.38-7.06,10.15-3.3,20.33-6.55,30.26-10.47a13.76,13.76,0,0,1,3.74-1.71c4.49-2.46,9.05-4.79,13-8.14a11.15,11.15,0,0,0,4.08-6.73C463.67,424.46,463.21,423.81,461,423.31Zm-60.54,14.38a1.68,1.68,0,0,1-1.73,2,.66.66,0,0,1-.45-.12c-.22-.19-.08-.58-.05-.88a.86.86,0,0,0,0-.24h0l0,0a2.49,2.49,0,0,1,0-.47h0v0a1.53,1.53,0,0,1,1.67-1.49C400.73,436.36,400.46,437.19,400.49,437.69Zm29.2-11.25c.9-.14.85.49.84,1.22a1.65,1.65,0,0,1-1.59,2c-.91.11-.69-.7-.74-1.2A1.64,1.64,0,0,1,429.69,426.44Zm-5.88,2c1-.12.6.72.66.91.19,1.57-.49,2.29-1.65,2.34-.85.05-.52-.81-.59-1.3A1.6,1.6,0,0,1,423.81,428.4Zm-7.61,3.79c-.17-1.14.6-1.64,1.54-1.76,1.16-.16.49.87.7,1.15.14,1.36-.46,2-1.59,2.05S416.28,432.71,416.2,432.19Zm-4.43.26c1.14-.06.59.88.65,1.38a1.44,1.44,0,0,1-1.46,1.79c-1.07.09-.76-.73-.81-1.13C410.06,433.16,410.68,432.52,411.77,432.45Zm-6.11,2c.92-.14.8.54.81,1.23a1.6,1.6,0,0,1-1.57,2c-.86.08-.74-.67-.76-1.2A1.67,1.67,0,0,1,405.66,434.43Z" transform="translate(-11.59 -101.56)" fill="#ececec" stroke="#2c2a69" stroke-miterlimit="10" stroke-width="0.82"/><path d="M273.63,597c-4-.62-7.55,1-11.28,1.77a24.09,24.09,0,0,1-10.71-.56c-.24-.06-.42-.33-.6-.66,5.4.83,10.5-1.1,15.75-1.45A17.19,17.19,0,0,1,273.63,597Z" transform="translate(-11.59 -101.56)" fill="#ececec" stroke="#2c2a69" stroke-miterlimit="10" stroke-width="0.82"/><path d="M354.43,503.5c0,.42,0,.79,0,1.12l-1.87-.13-1.75-.11c0-.45,0-1,0-1.73,0-3.28,0-8.88,0-12,0-.54,0-1,0-1.37,0-2.55-.69-3.3-3.21-3.31H269.74c-2.29,0-3,.76-3,3.11,0,5-.05,10,0,15,0,1.35-.41,1.9-1.77,2.13-7.59,1.31-15.09,3.1-22.6,4.78-.36.07-.9.3-1,0-.66-1.66-2-1-3.12-1-5-.07-10,0-15,0-1.8,0-2.49.4-2.56,1.9v0a5.24,5.24,0,0,0,0,.67,7.05,7.05,0,0,1-1.64,4.8c-.29.4-.57.8-.85,1.22l-.42.67c-2.21,3.53-3.72,7.43-5.49,11.19a22.75,22.75,0,0,1-3.54,5.39,26.89,26.89,0,0,1-5.58,4.8c-1.57,1-1.92.8-1.93-1,0-1.3,0-2.6,0-3.91,0-.39,0-.79,0-1.19,0-1-.32-1.43-1.36-1.42-3.6,0-7.19,0-10.78,0a3.76,3.76,0,0,0-1.66.32c-.76.39-1.06,1.17-1.07,2.48v.63c0,3.08,0,6.15,0,9.24a1.55,1.55,0,0,1-1.18,1.72l-3,1.15c-2.24.86-4.46,1.71-6.68,2.58-2.39.92-4.76,1.85-7.14,2.79-1.12.43-1.47.25-1.44-1,.07-3.53,0-7.06,0-10.59a3.5,3.5,0,0,1,1.22-2.83,3.75,3.75,0,0,1,.51-.38l3.7-2.36c1.69-1.09,3.4-2.16,5.08-3.24l3.94-2.53a6.43,6.43,0,0,1,3.77-1.07c1.14,0,2.28,0,3.43,0,3.66,0,7.33,0,11,0,1.29,0,1.68-.39,1.65-1.67-.09-3,0-6-.05-8.94a4.24,4.24,0,0,1,2.14-3.94l3.66-2.32.9-.58c2.05-1.3,4.1-2.62,6.13-4l.35-.24c.51-.33,1-.67,1.52-1l6.07-.74c5.79-.05,11.57-.06,17.34,0,1.39,0,1.81-.46,1.75-1.8-.09-2.12,0-4.26,0-6.38A3.82,3.82,0,0,1,243,495q9.6-6,19.26-11.87a4.44,4.44,0,0,1,2.46-.5h85.06c3.23,0,4.65,1.44,4.65,4.71S354.47,499.24,354.43,503.5Z" transform="translate(-11.59 -101.56)" fill="#ececec" stroke="#2c2a69" stroke-miterlimit="10" stroke-width="0.82"/><path d="M393.12,521.86a8.69,8.69,0,0,0-.74-2.36c-.1-.22-.21-.44-.34-.67s-.24-.23-.36-.35c-1.59-1.44-3.61-2.11-5.51-3a4,4,0,0,1-1.82-1.06,2.29,2.29,0,0,1-1.24-.28h0l-.48-.23-.62-.27q-9.18-4.1-18.65-7.39c-3-1-5.92-2-8.92-2.74-.64-.17-1.27-.31-1.9-.46l-1.76-.39a58.71,58.71,0,0,0-9-1.16c-6.73-.32-13.37.35-20,.8-9.21.63-18.38,1.63-27.52,2.85Q288,506,281.83,507c-2.74.43-5.49.87-8.22,1.33l-1.61.28c-8.45,1.43-16.85,3.12-25.22,5q-7.31,1.65-14.59,3.44l-4.5,1.12a13.91,13.91,0,0,0-5.61,2.67c-.2.16-.4.33-.59.51a10.74,10.74,0,0,0-2.13,2.81c-2.14,4-4.23,8.08-6.11,12.21a12.36,12.36,0,0,1-3.94,4.93,14.8,14.8,0,0,1-3.67,2l-10.55,3.91L183,551.58l-4.77,1.76-16.39,6c-3.61,1.33-3.61,1.35-2.93,5.17,1.16,6.42,4.31,11.83,8.54,16.65,1.24,1.4,1.63,2.18-.22,3.29a4.6,4.6,0,0,0-2.32,3,26.35,26.35,0,0,1,10.85-4c5.74-.88,11.32.35,16.9,1.31,5.4.93,10.74,2.15,16.07,3.4,3.22.75,6.55,1.07,9.81,1.69,5,1,10.13,1.72,15.19,2.54a99.77,99.77,0,0,0,12.23,1.2c-6.91-2.12-13.75-2.74-20.27-5.45l38.35.54,5.47.08q8.94.15,17.94.26l-.45.21a53.16,53.16,0,0,0-8.74,5c-.49.35-1,.7-1.46,1.06l.31.28c1.3-.32,2.57-.67,3.84-1.06s2.31-.74,3.46-1.15h0c2.47-.84,4.91-1.73,7.39-2.5,6.13-1.92,12.37-3.19,18.84-2.52l1.41.16h.06c6.39.76,12.67,2.12,19,3.13h0c8.14,1.27,16.27,2.72,24.5,2.72a63.14,63.14,0,0,0,6.57-.34,41.54,41.54,0,0,0,9.61-1.78c-8-.49-16-1-24-2.08a2.44,2.44,0,0,0,.38-.78h0a2.33,2.33,0,0,0,.13-.67,5.67,5.67,0,0,0-.28-1.91,24.11,24.11,0,0,0-1.94-4.7,61.1,61.1,0,0,0-7.74-10.8c-2.33-2.78-3.14-6-2.87-10.07a25.44,25.44,0,0,0,2.53,5.15h0a23.94,23.94,0,0,0,5,5.55,60.07,60.07,0,0,1,7,7.49c.18-.3.33-.58.48-.89h0c.84-1.7,1.41-3.42,2.7-4.74a3.06,3.06,0,0,1,.67-1.58l.1-.09h0a57.7,57.7,0,0,1,7.83-10.3,21.55,21.55,0,0,1,2.62-2.78h0a6,6,0,0,1,.47-.38l.2-.15.31-.31h0c.52-.52,1-1,1.57-1.56l.47-.47h0c2.8-2.7,5.71-5.27,8.62-7.87l5.42-6.15c1.56-2.06,3.13-4.11,4.69-6.18l.76-1c.36-.48.55-1.09,1.17-1.32h0c.79-2.41,2.58-4.27,3.64-6.53a7.48,7.48,0,0,0,1.35-2.75A6.38,6.38,0,0,0,393.12,521.86Zm-141.36-2.77c0-.72.57-.68,1-.78q4.7-1.08,9.41-2.11c.25-.07.54-.33.82-.06.44.42-.46,4.28-1.07,4.43-3,.71-6,1.41-9,2.11l-1.43.34V523A16.67,16.67,0,0,1,251.76,519.09Zm-15.69,3.61c0-.74.51-.86,1.06-1l3.39-.8.9-.2h0l4.7-1.12c.94-.23,1.3-.11,1.13,1,0,.11,0,.23-.05.33l-.09.6a7.62,7.62,0,0,1-.27,1.24,1.78,1.78,0,0,1-.21.48.26.26,0,0,1,0,.09l0,.06a1,1,0,0,1-.17.19,2.13,2.13,0,0,1-.58.36,3.41,3.41,0,0,1-.62.22c-.39.12-.89.23-1.51.38l-7.88,1.85C235.88,525.09,236,523.9,236.07,522.7Z" transform="translate(-11.59 -101.56)" fill="#ececec" stroke="#2c2a69" stroke-miterlimit="10" stroke-width="0.82"/><path d="M109,363.18a37.92,37.92,0,0,0-11.5,10.74,47.11,47.11,0,0,0-7,14.07,34.56,34.56,0,0,0-1.3,15.34,22.49,22.49,0,0,0,2.46,7.11c.28.56.67,1.05,1,1.58s.76,1.05,1.15,1.57c.8,1,1.62,2,2.5,3a58.23,58.23,0,0,0,11.95,9.94,90.56,90.56,0,0,0,14,7.13A210,210,0,0,0,152.51,443c20.65,5,41.83,7,63,9.26,5.3.55,10.6,1.08,15.92,1.54s10.63.94,16,1.46c10.65,1,21.32,2,32,3.33l0,.66c-10.73.53-21.44.73-32.17.68-2.68,0-5.37,0-8-.1s-5.37-.1-8.05-.19q-8.06-.29-16.11-.8a325.5,325.5,0,0,1-63.7-10.81,214.54,214.54,0,0,1-30.67-10.57,94.61,94.61,0,0,1-14.35-7.9,59.82,59.82,0,0,1-12.3-10.94c-.9-1.05-1.73-2.15-2.54-3.27-.39-.57-.78-1.13-1.16-1.72s-.77-1.21-1.06-1.86a24.9,24.9,0,0,1-2.48-8.08,36.89,36.89,0,0,1,2-16.32,48.77,48.77,0,0,1,7.76-14.28,38.93,38.93,0,0,1,12.26-10.51Z" transform="translate(-11.59 -101.56)" fill="#f5f5f5"/><path d="M106.93,345.4a37.74,37.74,0,0,0-11.49,10.73,47.5,47.5,0,0,0-7,14.07,34.55,34.55,0,0,0-1.29,15.34,22.24,22.24,0,0,0,2.46,7.11c.28.56.66,1.06,1,1.59s.76,1,1.15,1.56c.8,1,1.62,2,2.5,3a58.3,58.3,0,0,0,12,9.93,90.46,90.46,0,0,0,14,7.13,207.65,207.65,0,0,0,30.3,9.39c20.64,5,41.82,7,63,9.27,5.29.54,10.59,1.08,15.91,1.53s10.63,1,16,1.46c10.65,1,21.32,1.95,32,3.34l0,.65c-10.73.53-21.45.73-32.18.68-2.68,0-5.36,0-8-.09s-5.37-.11-8.06-.2q-8-.28-16.1-.79a325.61,325.61,0,0,1-63.71-10.82,212.51,212.51,0,0,1-30.67-10.57,94.51,94.51,0,0,1-14.34-7.9,60.13,60.13,0,0,1-12.31-10.94c-.89-1.05-1.73-2.15-2.53-3.27-.4-.57-.78-1.13-1.16-1.72s-.77-1.21-1.07-1.86a25.32,25.32,0,0,1-2.48-8.08,36.9,36.9,0,0,1,2-16.32,48.57,48.57,0,0,1,7.77-14.28,38.77,38.77,0,0,1,12.26-10.5Z" transform="translate(-11.59 -101.56)" fill="#f5f5f5"/></svg>