<?xml version="1.0" standalone="no"?>
<!DOCTYPE svg PUBLIC "-//W3C//DTD SVG 20010904//EN"
 "http://www.w3.org/TR/2001/REC-SVG-20010904/DTD/svg10.dtd">
<svg version="1.0" xmlns="http://www.w3.org/2000/svg"
 width="200.000000pt" height="325.000000pt" viewBox="0 0 200.000000 325.000000"
 preserveAspectRatio="xMidYMid meet">

<g transform="translate(0.000000,325.000000) scale(0.100000,-0.100000)"
fill="#000000" stroke="none">
<path d="M250 2913 c0 -5 -2 -198 -3 -430 l-2 -423 61 0 61 0 -10 57 c-13 75
5 222 38 309 100 265 363 438 639 421 166 -10 297 -70 415 -188 76 -76 122
-148 159 -251 24 -66 27 -87 27 -213 l0 -140 58 3 57 4 0 429 0 429 -750 0
c-412 0 -750 -3 -750 -7z m543 -73 c-225 -80 -398 -272 -442 -490 -18 -92 -21
-97 -16 -37 15 172 133 356 296 460 57 36 174 87 199 86 8 0 -9 -9 -37 -19z
m510 -31 c78 -40 166 -109 217 -172 56 -68 116 -182 124 -237 5 -28 2 -24 -13
17 -58 158 -182 305 -316 375 -74 40 -84 53 -12 17z m354 -471 c-3 -8 -6 -5
-6 6 -1 11 2 17 5 13 3 -3 4 -12 1 -19z m10 -90 c-2 -13 -4 -3 -4 22 0 25 2
35 4 23 2 -13 2 -33 0 -45z"/>
<path d="M247 1993 c-4 -3 -7 -199 -7 -435 l0 -428 750 0 750 0 0 435 0 435
-59 0 -59 0 -45 -92 c-100 -206 -288 -342 -505 -367 -220 -24 -421 58 -570
233 -37 44 -98 154 -116 209 -4 14 -17 17 -69 17 -35 0 -67 -3 -70 -7z m1435
-508 c13 -5 16 -14 12 -34 -9 -37 -11 -37 -38 -12 -51 48 -153 35 -192 -24
-19 -29 -21 -124 -2 -161 32 -65 123 -88 196 -50 33 17 34 17 30 -6 -4 -33
-43 -48 -124 -48 -84 0 -128 13 -168 49 -89 81 -70 222 39 278 54 29 186 33
247 8z m-1182 -10 c0 -26 -1 -26 -59 -19 l-59 6 -3 -51 -4 -51 63 0 c60 0 62
-1 62 -26 0 -25 -1 -26 -57 -23 -32 2 -59 1 -60 -3 -2 -5 -3 -30 -3 -58 l0
-50 60 0 c57 0 60 -1 60 -25 l0 -25 -112 1 -113 0 0 175 0 174 113 0 112 0 0
-25z m514 -105 c29 -69 63 -144 74 -167 12 -23 22 -45 22 -48 0 -3 -26 -5 -57
-3 l-58 3 -16 45 -17 45 -61 3 -62 3 -21 -51 c-18 -44 -24 -50 -49 -50 -16 0
-29 2 -29 3 0 2 29 64 64 138 35 74 69 151 77 172 12 35 16 38 47 35 32 -3 34
-6 86 -128z"/>
<path d="M878 1347 c-10 -23 -18 -46 -18 -50 0 -4 20 -7 44 -7 l44 0 -21 50
c-11 28 -23 50 -26 50 -4 0 -14 -19 -23 -43z"/>
<path d="M240 985 l0 -85 60 0 c33 0 60 4 60 10 0 6 -24 10 -52 10 l-53 0 3
75 c2 49 0 75 -7 75 -7 0 -11 -31 -11 -85z"/>
<path d="M391 1065 c-2 -5 -4 -45 -4 -87 l-2 -78 57 0 c31 0 60 5 63 10 4 6
-15 10 -49 10 l-55 0 -4 78 c-1 42 -4 73 -6 67z"/>
<path d="M520 985 l0 -85 63 0 c35 0 71 6 81 13 14 10 5 12 -56 9 l-73 -4 2
76 c1 42 -2 76 -8 76 -5 0 -9 -38 -9 -85z"/>
<path d="M971 1065 c-1 -5 -3 -45 -4 -87 l-2 -78 28 0 c15 0 27 5 27 10 0 6
-9 10 -20 10 -17 0 -20 8 -23 78 -1 42 -4 73 -6 67z"/>
<path d="M1186 1055 c-9 -26 -7 -32 5 -12 6 10 9 21 6 23 -2 3 -7 -2 -11 -11z"/>
<path d="M1310 998 l0 -78 -29 0 c-21 0 -32 6 -36 20 -5 15 -15 20 -41 20 -19
0 -34 -4 -34 -10 0 -5 12 -10 26 -10 17 0 28 -6 31 -19 4 -18 15 -20 107 -20
68 -1 108 3 120 12 14 10 4 12 -57 9 l-73 -4 4 60 c2 33 -1 68 -7 78 -8 15
-10 2 -11 -58z"/>
<path d="M305 1050 c-4 -6 7 -10 24 -10 17 0 31 5 31 10 0 6 -11 10 -24 10
-14 0 -28 -4 -31 -10z"/>
<path d="M580 1050 c0 -5 9 -10 19 -10 29 0 51 -27 52 -63 l1 -32 10 32 c15
44 -10 83 -52 83 -17 0 -30 -4 -30 -10z"/>
<path d="M805 1050 c-4 -6 6 -10 22 -10 38 0 53 -16 53 -58 0 -19 4 -31 10
-27 16 10 12 72 -6 89 -17 18 -69 22 -79 6z"/>
<path d="M1030 1055 c0 -3 9 -16 21 -28 l21 -22 -4 25 c-2 14 -11 26 -20 28
-10 2 -18 1 -18 -3z"/>
<path d="M1370 1050 c0 -5 9 -10 19 -10 29 0 51 -27 52 -63 l1 -32 10 32 c15
44 -10 83 -52 83 -17 0 -30 -4 -30 -10z"/>
<path d="M1595 1050 c-4 -6 6 -10 22 -10 39 0 53 -17 53 -64 0 -30 3 -37 10
-26 13 20 13 66 0 91 -12 21 -74 27 -85 9z"/>
<path d="M1197 1018 c-6 -18 7 -42 21 -37 7 3 6 12 -2 28 -10 18 -14 20 -19 9z"/>
<path d="M728 1014 c-18 -17 -8 -71 17 -94 33 -31 125 -35 153 -7 16 17 16 18
-11 8 -40 -15 -67 -14 -107 7 -29 14 -36 24 -40 55 -3 22 -8 35 -12 31z"/>
<path d="M1517 1007 c-13 -34 -7 -63 18 -87 33 -31 125 -35 153 -7 16 17 16
18 -11 8 -40 -15 -67 -14 -107 7 -29 14 -36 23 -40 57 -4 30 -7 35 -13 22z"/>
<path d="M1150 979 c-7 -11 -10 -23 -7 -25 2 -2 9 7 15 21 14 30 7 33 -8 4z"/>
<path d="M305 980 c3 -5 15 -10 25 -10 10 0 22 5 25 10 4 6 -7 10 -25 10 -18
0 -29 -4 -25 -10z"/>
<path d="M1030 967 c0 -10 7 -29 16 -42 13 -20 25 -25 60 -25 24 0 44 5 44 10
0 6 -18 10 -40 10 -22 0 -40 3 -40 8 0 4 -9 18 -20 32 -16 21 -20 22 -20 7z"/>
<path d="M1151 850 c-2 -8 -4 -44 -4 -80 -2 -63 -3 -65 -29 -68 -22 -3 -30 2
-38 22 -7 20 -16 26 -40 26 -16 0 -30 -4 -30 -10 0 -5 11 -10 24 -10 17 0 26
-7 30 -24 6 -23 10 -24 71 -24 36 0 65 4 65 9 0 5 -9 9 -20 9 -17 0 -20 8 -23
83 -1 45 -4 75 -6 67z"/>
<path d="M305 819 c-9 -17 -15 -33 -13 -35 3 -2 12 12 21 31 21 43 13 47 -8 4z"/>
<path d="M440 767 c0 -86 0 -87 24 -87 14 0 28 5 31 10 3 6 -5 10 -19 10 -23
0 -24 2 -24 71 0 39 -3 73 -6 76 -3 4 -6 -33 -6 -80z"/>
<path d="M531 768 c-1 -87 -1 -88 23 -88 14 0 28 5 31 10 3 6 -5 10 -19 10
-24 0 -24 2 -19 53 2 28 0 63 -5 77 -9 20 -11 7 -11 -62z"/>
<path d="M590 842 c0 -4 9 -15 20 -24 22 -20 39 -5 20 17 -13 16 -40 20 -40 7z"/>
<path d="M856 837 c-16 -12 -14 -13 17 -9 19 2 38 -1 41 -7 10 -16 26 -14 26
3 0 26 -54 35 -84 13z"/>
<path d="M1020 829 c-7 -11 -10 -23 -7 -25 2 -2 9 7 15 21 14 30 7 33 -8 4z"/>
<path d="M1210 842 c0 -5 9 -17 21 -28 21 -19 21 -19 18 6 -4 23 -39 43 -39
22z"/>
<path d="M1403 843 c-23 -9 -14 -20 12 -15 16 3 33 -2 44 -12 14 -13 21 -14
27 -5 15 25 -45 48 -83 32z"/>
<path d="M1610 840 c-12 -8 -9 -10 12 -10 31 0 58 -32 58 -70 1 -22 2 -23 11
-7 31 52 -31 119 -81 87z"/>
<path d="M325 800 c-4 -7 0 -19 9 -28 13 -14 16 -14 16 -2 0 25 -16 44 -25 30z"/>
<path d="M777 803 c-4 -3 -7 -22 -7 -40 0 -50 37 -83 94 -83 24 0 51 3 60 6
31 12 15 19 -34 16 -45 -4 -53 -1 -81 27 -23 23 -30 38 -26 56 5 27 4 29 -6
18z"/>
<path d="M1035 800 c-4 -7 0 -19 9 -28 13 -14 16 -14 16 -2 0 25 -16 44 -25
30z"/>
<path d="M1317 803 c-4 -3 -7 -23 -7 -44 0 -51 35 -79 99 -79 51 0 91 9 91 19
0 4 -27 5 -60 3 -56 -4 -61 -3 -91 27 -23 23 -30 38 -26 56 5 27 4 29 -6 18z"/>
<path d="M1527 803 c-4 -3 -7 -23 -7 -44 0 -50 35 -79 96 -79 45 0 94 17 94
32 0 5 -9 4 -19 -2 -28 -15 -87 -12 -121 5 -30 16 -47 53 -36 80 6 16 3 19 -7
8z"/>
<path d="M645 780 c-3 -5 -1 -10 4 -10 6 0 11 5 11 10 0 6 -2 10 -4 10 -3 0
-8 -4 -11 -10z"/>
<path d="M985 760 c-9 -16 -13 -30 -11 -30 3 0 12 14 21 30 9 17 13 30 11 30
-3 0 -12 -13 -21 -30z"/>
<path d="M590 757 c0 -34 39 -77 70 -77 16 0 32 5 35 10 4 6 -7 10 -24 10 -17
0 -31 3 -31 8 0 4 -11 21 -25 37 -20 24 -24 26 -25 12z"/>
<path d="M1210 756 c0 -36 33 -76 62 -76 15 0 30 5 33 10 3 6 -4 10 -18 10
-16 0 -32 12 -50 37 -19 27 -27 32 -27 19z"/>
<path d="M1447 763 c-11 -10 -8 -43 3 -43 6 0 10 11 10 25 0 26 -2 29 -13 18z"/>
<path d="M255 719 c-18 -34 -15 -45 12 -35 14 6 15 9 4 15 -10 7 -11 13 -2 30
7 11 9 21 7 21 -3 0 -13 -14 -21 -31z"/>
<path d="M300 740 c0 -5 11 -10 25 -10 18 0 26 -7 31 -25 5 -19 13 -25 34 -25
16 0 32 5 35 10 4 6 -5 10 -20 10 -18 0 -28 7 -35 25 -7 19 -17 25 -40 25 -16
0 -30 -4 -30 -10z"/>
<path d="M956 703 c-11 -11 -6 -23 8 -23 8 0 17 4 20 9 7 10 -19 23 -28 14z"/>
<path d="M313 633 c-20 -8 -15 -19 9 -20 11 -1 24 -7 28 -14 6 -8 10 -8 15 1
5 8 1 18 -10 27 -20 14 -23 14 -42 6z"/>
<path d="M942 615 c-17 -37 -14 -45 4 -12 9 16 14 31 11 33 -2 2 -9 -7 -15
-21z"/>
<path d="M1520 620 c0 -5 8 -10 18 -10 10 0 23 -5 29 -11 8 -8 13 -8 17 0 11
18 -3 31 -35 31 -16 0 -29 -4 -29 -10z"/>
<path d="M246 602 c-14 -23 5 -50 47 -68 23 -10 45 -20 50 -22 4 -2 7 3 7 11
0 8 -18 22 -40 31 -23 9 -44 26 -49 38 -5 14 -10 18 -15 10z"/>
<path d="M1466 598 c-13 -29 1 -47 50 -68 53 -23 54 -23 54 -10 0 6 -20 20
-45 32 -27 13 -45 29 -48 42 -3 19 -4 19 -11 4z"/>
<path d="M962 581 c2 -14 9 -26 16 -29 17 -5 15 10 -3 34 -15 18 -15 18 -13
-5z"/>
<path d="M900 530 c-6 -11 -8 -20 -6 -20 3 0 10 9 16 20 6 11 8 20 6 20 -3 0
-10 -9 -16 -20z"/>
<path d="M250 504 c-6 -14 -10 -27 -10 -30 0 -2 24 -4 54 -4 35 0 58 5 66 15
10 12 7 13 -18 6 -44 -13 -85 -3 -79 20 7 28 -2 23 -13 -7z"/>
<path d="M930 520 c0 -5 13 -10 29 -10 20 0 30 -6 34 -20 4 -14 14 -20 35 -20
17 0 34 5 37 10 4 6 -6 10 -23 10 -21 0 -31 6 -35 20 -4 15 -14 20 -41 20 -20
0 -36 -4 -36 -10z"/>
<path d="M467 504 c-15 -16 -6 -34 18 -34 14 0 25 5 25 10 0 6 -6 10 -14 10
-8 0 -16 5 -18 11 -2 5 -7 7 -11 3z"/>
<path d="M1466 494 c-13 -34 44 -45 99 -19 29 13 29 13 -19 8 -39 -5 -51 -3
-61 11 -12 16 -13 16 -19 0z"/>
<path d="M1132 489 c5 -17 48 -25 48 -10 0 6 -4 11 -9 11 -5 0 -17 3 -27 7
-12 4 -15 2 -12 -8z"/>
<path d="M1685 490 c-8 -13 3 -30 20 -30 23 0 25 15 5 28 -12 7 -21 8 -25 2z"/>
<path d="M875 480 c-3 -5 3 -10 14 -10 12 0 21 5 21 10 0 6 -6 10 -14 10 -8 0
-18 -4 -21 -10z"/>
</g>
</svg>
