<svg id="Capa_1" data-name="Capa 1" xmlns="http://www.w3.org/2000/svg" xmlns:xlink="http://www.w3.org/1999/xlink" viewBox="0 0 792 906.47"><defs><style>.cls-1{fill:#2c2a69;}.cls-2{fill:#fcfafa;}.cls-3{fill:#eeae43;}.cls-4{fill:url(#Degradado_sin_nombre_16);}.cls-5{fill:url(#Degradado_sin_nombre_16-2);}.cls-6{fill:url(#Degradado_sin_nombre_16-3);}.cls-7{fill:url(#Degradado_sin_nombre_16-4);}.cls-8{fill:url(#Degradado_sin_nombre_16-5);}.cls-9{fill:url(#Degradado_sin_nombre_16-6);}.cls-10{fill:url(#Degradado_sin_nombre_16-7);}.cls-11{fill:url(#Degradado_sin_nombre_16-8);}.cls-12{fill:url(#Degradado_sin_nombre_16-9);}.cls-13{fill:url(#Degradado_sin_nombre_16-10);}.cls-14{fill:url(#Degradado_sin_nombre_16-11);}.cls-15{fill:url(#Degradado_sin_nombre_16-12);}.cls-16{fill:url(#Degradado_sin_nombre_16-13);}.cls-17{fill:url(#Degradado_sin_nombre_16-14);}.cls-18{fill:url(#Degradado_sin_nombre_16-15);}.cls-19{fill:url(#Degradado_sin_nombre_16-16);}.cls-20{fill:url(#Degradado_sin_nombre_16-17);}.cls-21{fill:url(#Degradado_sin_nombre_16-18);}.cls-22{fill:url(#Degradado_sin_nombre_16-19);}.cls-23{fill:url(#Degradado_sin_nombre_16-20);}.cls-24{fill:url(#Degradado_sin_nombre_16-21);}.cls-25{fill:url(#Degradado_sin_nombre_16-22);}.cls-26{fill:url(#Degradado_sin_nombre_16-23);}.cls-27{fill:url(#Degradado_sin_nombre_16-24);}.cls-28{fill:url(#Degradado_sin_nombre_16-25);}.cls-29{fill:url(#Degradado_sin_nombre_16-26);}.cls-30{fill:url(#Degradado_sin_nombre_16-27);}.cls-31{fill:url(#Degradado_sin_nombre_16-28);}.cls-32{fill:url(#Degradado_sin_nombre_16-29);}.cls-33{fill:url(#Degradado_sin_nombre_16-30);}.cls-34{fill:url(#Degradado_sin_nombre_16-31);}.cls-35{fill:url(#Degradado_sin_nombre_16-32);}.cls-36{fill:url(#Degradado_sin_nombre_16-33);}.cls-37{fill:url(#Degradado_sin_nombre_16-34);}.cls-38{fill:url(#Degradado_sin_nombre_16-35);}.cls-39{fill:url(#Degradado_sin_nombre_16-36);}.cls-40{fill:url(#Degradado_sin_nombre_16-37);}.cls-41{fill:url(#Degradado_sin_nombre_16-38);}.cls-42{fill:url(#Degradado_sin_nombre_16-39);}.cls-43{fill:url(#Degradado_sin_nombre_16-40);}.cls-44{fill:#203964;}.cls-45{fill:#f7fbfc;}.cls-46{fill:#ededed;stroke:#2c2a69;stroke-miterlimit:10;stroke-width:0.82px;}.cls-47{fill:#f6f6f6;}</style><linearGradient id="Degradado_sin_nombre_16" x1="552.51" y1="705.04" x2="553.57" y2="705.04" gradientUnits="userSpaceOnUse"><stop offset="0.26" stop-color="#f39a36"/><stop offset="0.75" stop-color="#f7bb37"/></linearGradient><linearGradient id="Degradado_sin_nombre_16-2" x1="237" y1="605.74" x2="330" y2="605.74" xlink:href="#Degradado_sin_nombre_16"/><linearGradient id="Degradado_sin_nombre_16-3" x1="215.41" y1="533.11" x2="272.49" y2="533.11" xlink:href="#Degradado_sin_nombre_16"/><linearGradient id="Degradado_sin_nombre_16-4" x1="490.08" y1="667.84" x2="564.16" y2="667.84" xlink:href="#Degradado_sin_nombre_16"/><linearGradient id="Degradado_sin_nombre_16-5" x1="570.39" y1="627.96" x2="605.13" y2="627.96" xlink:href="#Degradado_sin_nombre_16"/><linearGradient id="Degradado_sin_nombre_16-6" x1="316.7" y1="394.32" x2="325.02" y2="394.32" xlink:href="#Degradado_sin_nombre_16"/><linearGradient id="Degradado_sin_nombre_16-7" x1="323.25" y1="384.55" x2="404.86" y2="384.55" xlink:href="#Degradado_sin_nombre_16"/><linearGradient id="Degradado_sin_nombre_16-8" x1="327.56" y1="133.74" x2="327.93" y2="133.74" xlink:href="#Degradado_sin_nombre_16"/><linearGradient id="Degradado_sin_nombre_16-9" x1="477.79" y1="431.65" x2="477.79" y2="431.65" xlink:href="#Degradado_sin_nombre_16"/><linearGradient id="Degradado_sin_nombre_16-10" x1="430.35" y1="405.14" x2="456.41" y2="405.14" xlink:href="#Degradado_sin_nombre_16"/><linearGradient id="Degradado_sin_nombre_16-11" x1="384.72" y1="406.35" x2="442.4" y2="406.35" xlink:href="#Degradado_sin_nombre_16"/><linearGradient id="Degradado_sin_nombre_16-12" x1="486.32" y1="455.54" x2="540.97" y2="455.54" xlink:href="#Degradado_sin_nombre_16"/><linearGradient id="Degradado_sin_nombre_16-13" x1="360.78" y1="419.63" x2="435.52" y2="419.63" xlink:href="#Degradado_sin_nombre_16"/><linearGradient id="Degradado_sin_nombre_16-14" x1="467.04" y1="411.03" x2="493.41" y2="411.03" xlink:href="#Degradado_sin_nombre_16"/><linearGradient id="Degradado_sin_nombre_16-15" x1="482.27" y1="480.74" x2="541.42" y2="480.74" xlink:href="#Degradado_sin_nombre_16"/><linearGradient id="Degradado_sin_nombre_16-16" x1="476.31" y1="495.85" x2="523.38" y2="495.85" xlink:href="#Degradado_sin_nombre_16"/><linearGradient id="Degradado_sin_nombre_16-17" x1="398.57" y1="490.04" x2="449.44" y2="490.04" xlink:href="#Degradado_sin_nombre_16"/><linearGradient id="Degradado_sin_nombre_16-18" x1="367.73" y1="475.08" x2="439.9" y2="475.08" xlink:href="#Degradado_sin_nombre_16"/><linearGradient id="Degradado_sin_nombre_16-19" x1="353.02" y1="451.24" x2="427.9" y2="451.24" xlink:href="#Degradado_sin_nombre_16"/><linearGradient id="Degradado_sin_nombre_16-20" x1="446.45" y1="493.96" x2="486.8" y2="493.96" xlink:href="#Degradado_sin_nombre_16"/><linearGradient id="Degradado_sin_nombre_16-21" x1="475.1" y1="425.32" x2="525.16" y2="425.32" xlink:href="#Degradado_sin_nombre_16"/><linearGradient id="Degradado_sin_nombre_16-22" x1="283.5" y1="534.27" x2="384.7" y2="534.27" xlink:href="#Degradado_sin_nombre_16"/><linearGradient id="Degradado_sin_nombre_16-23" x1="268.71" y1="483.43" x2="355.28" y2="483.43" xlink:href="#Degradado_sin_nombre_16"/><linearGradient id="Degradado_sin_nombre_16-24" x1="341.48" y1="570.4" x2="436.5" y2="570.4" xlink:href="#Degradado_sin_nombre_16"/><linearGradient id="Degradado_sin_nombre_16-25" x1="272.49" y1="430.61" x2="362.5" y2="430.61" xlink:href="#Degradado_sin_nombre_16"/><linearGradient id="Degradado_sin_nombre_16-26" x1="289.57" y1="700.85" x2="320.32" y2="700.85" xlink:href="#Degradado_sin_nombre_16"/><linearGradient id="Degradado_sin_nombre_16-27" x1="462.13" y1="753.35" x2="462.39" y2="753.35" xlink:href="#Degradado_sin_nombre_16"/><linearGradient id="Degradado_sin_nombre_16-28" x1="302.86" y1="647.98" x2="411.71" y2="647.98" xlink:href="#Degradado_sin_nombre_16"/><linearGradient id="Degradado_sin_nombre_16-29" x1="390.61" y1="680.82" x2="496.31" y2="680.82" xlink:href="#Degradado_sin_nombre_16"/><linearGradient id="Degradado_sin_nombre_16-30" x1="219.22" y1="669.07" x2="288.94" y2="669.07" xlink:href="#Degradado_sin_nombre_16"/><linearGradient id="Degradado_sin_nombre_16-31" x1="208.38" y1="588.82" x2="224.26" y2="588.82" xlink:href="#Degradado_sin_nombre_16"/><linearGradient id="Degradado_sin_nombre_16-32" x1="226.19" y1="462.79" x2="269.85" y2="462.79" xlink:href="#Degradado_sin_nombre_16"/><linearGradient id="Degradado_sin_nombre_16-33" x1="427.2" y1="586.27" x2="496.31" y2="586.27" xlink:href="#Degradado_sin_nombre_16"/><linearGradient id="Degradado_sin_nombre_16-34" x1="505.62" y1="622.07" x2="505.64" y2="622.07" xlink:href="#Degradado_sin_nombre_16"/><linearGradient id="Degradado_sin_nombre_16-35" x1="499.85" y1="577.97" x2="561.19" y2="577.97" xlink:href="#Degradado_sin_nombre_16"/><linearGradient id="Degradado_sin_nombre_16-36" x1="536.41" y1="546.26" x2="600.31" y2="546.26" xlink:href="#Degradado_sin_nombre_16"/><linearGradient id="Degradado_sin_nombre_16-37" x1="547.26" y1="498.2" x2="605.13" y2="498.2" xlink:href="#Degradado_sin_nombre_16"/><linearGradient id="Degradado_sin_nombre_16-38" x1="466.63" y1="393.85" x2="515.24" y2="393.85" xlink:href="#Degradado_sin_nombre_16"/><linearGradient id="Degradado_sin_nombre_16-39" x1="517.28" y1="429.88" x2="565.68" y2="429.88" xlink:href="#Degradado_sin_nombre_16"/><linearGradient id="Degradado_sin_nombre_16-40" x1="401.23" y1="378.37" x2="455.51" y2="378.37" xlink:href="#Degradado_sin_nombre_16"/></defs><rect class="cls-1" width="792" height="766.01"/><path class="cls-2" d="M467.74,962.31c-8.66.25-17.32.11-26,0-4.27-.08-8.53-.16-12.79-.2-3.92,0-5.66-.53-6.64-4.6-2.42-10.14-6.8-19.65-10.85-29.25-.76-1.8-2.14-1.77-3.65-1.78q-19.72-.12-39.46-.28c-2,0-3.12.37-4,2.61-3.67,9.15-7.76,18.13-9.86,27.83-.49,2.26-1.53,5.06-4.25,5.11-6.27.12-11.64.34-18.87.4-1.5.11-3.46.21-2.87-.82s.87-2.83,1.31-3.68c9.39-18.43,18.14-37.17,26.69-56,10.29-22.63,20.39-45.34,30.59-68,2.38-5.29,12.66-4.12,17.35-3.75,8.82.71,9.32,9.85,12,16.29,11.56,27.52,21.88,55.54,34,82.82C455.49,940.2,459.85,951,467.74,962.31Zm-97.52-53.65H404c1.92,0,2.23-.93,1.49-2.55-5.37-11.68-10.73-23.36-16.46-35.86Z" transform="translate(0 -260.94)"/><path class="cls-2" d="M192.92,943.2c.61,2.83,2.8,1.69,4.43,1.66,13.47-.24,27-.44,40.42-.91,3.38-.12,4.33,1,4,4.16-.41,4.45,1.86,10.35-1,13-2.36,2.18-8.18.76-12.46.71-24.3-.28-48.6-.64-72.9-.95-2.25,0-4.12.31-3.69-3.28,2.64-21.84,2.6-43.82,2.85-65.78.2-16.81.13-33.62-.88-50.42-.19-3.11-3-7.09-.16-9.12,2.1-1.5,6.11-.32,9.28-.32,25,0,49.95.07,74.93-.08,3.57,0,5.14.7,4.71,4.61-.47,4.25,1.67,9.83-.88,12.48-2.33,2.42-7.86.36-12,.25-10.63-.3-21.27-.48-31.89-1-3.78-.2-4.86.88-4.79,4.66.19,9.48,0,19-.26,28.46-.1,3.18.93,3.9,3.93,3.85,13.65-.2,27.31-.06,41-.29,3.26-.06,4.37.81,4.1,4.1-.36,4.46,1.26,10.13-.94,13-1.55,2-8,.28-12.33.25-8.65-.06-17.3-.29-25.93-.05-3.45-.1-6-.09-9.46-.27V902c0,1.17,0,2.33,0,3.49h0c0,1.91,0,3.82,0,5.7Q193,927.18,192.92,943.2Z" transform="translate(0 -260.94)"/><path class="cls-2" d="M684.36,927.31q-.95,11.79-1.88,23.59a3.37,3.37,0,0,1-2.21,3.3,94.46,94.46,0,0,1-31.46,8.92c-7.46.83-14.91,1.38-22.34.63-14.9-1.5-29.15-5.21-42.39-12.6-6.29-3.52-12.31-7.57-17.13-12.6-8.53-8.9-15.26-19.15-17.47-31.82-3.71-21.14,3.19-38.47,18.2-53.16C584,837.65,604,831,626.15,829a105.08,105.08,0,0,1,56.16,10c3,1.44,3.83,2.61,2.31,5.86-2,4.4-3.36,9.15-5,13.89-6.53-4.93-12.18-10-19.62-13a48.92,48.92,0,0,0-51,9.08c-11.87,10.91-18.12,24.74-18.18,40.34-.09,26.16,15.5,49.48,42.75,54.62,16,3,30.73-1.8,42.64-13.74C678.94,933.2,681.62,930.37,684.36,927.31Z" transform="translate(0 -260.94)"/><path class="cls-3" d="M192.92,943.2q.06-16,.13-32Q193,927.24,192.92,943.2Z" transform="translate(0 -260.94)"/><path class="cls-3" d="M193,905.52h0Z" transform="translate(0 -260.94)"/><path class="cls-3" d="M681.71,1167.4c-.22-.75-.44-1.5-.65-2.24C681.27,1165.91,681.49,1166.65,681.71,1167.4Z" transform="translate(0 -260.94)"/><path class="cls-3" d="M680.94,1164.76Z" transform="translate(0 -260.94)"/><path class="cls-4" d="M553.51,704.65h0a9.86,9.86,0,0,0-1,.78h1.06Z" transform="translate(0 -260.94)"/><path class="cls-5" d="M295.9,565.46c3.86,4.67,7.75,9.31,12.72,12.88,4.49,5.3,10.22,9.2,15.49,13.62,7.64,6.37,7.13,3.66,2.54,12.37-10.34,19.6-19.8,39.62-28.54,60-.72,1.67-.81,5-4.22,2.26-21.55-17.24-41.26-36.17-56.06-59.74a4.11,4.11,0,0,1-.14-4.76c10.53-19.92,22.87-38.61,37.86-55.49,3.35-3.77,3.31-3.61,6.05.54C285.86,553.61,290.29,560,295.9,565.46Z" transform="translate(0 -260.94)"/><path class="cls-6" d="M231.76,589.9c-.81,0-1.35,2.29-2.47-.06-7.58-16-14.7-32.21-13.8-50.3.61-12.31,3.68-23.94,12.67-33.68s17.66-20,28.36-28.12c1.24-.95,2.34-2.2,4.51-2.43a120.67,120.67,0,0,0,2.47,27,105.7,105.7,0,0,0,8.1,24.53c1.42,2.91,1.2,5-1,7.49a271.7,271.7,0,0,0-31.16,41.95l0,.18a68.39,68.39,0,0,0-6.68,11.7l0,0a2.17,2.17,0,0,0-1,1.82Z" transform="translate(0 -260.94)"/><path class="cls-7" d="M494,709.58a6.91,6.91,0,0,0,1.07-2.28A12.18,12.18,0,0,0,494,709.58Zm1.18-7.81a8.26,8.26,0,0,0-.74-2.36c-.2.74-.41,1.47-.63,2.2q-1.76,6-3.72,11.93c.79-2.41,2.57-4.26,3.64-6.52a7.76,7.76,0,0,0,1.35-2.76,9.28,9.28,0,0,0-.92-2.31Zm67.56-82.85-7,4.33A139.16,139.16,0,0,1,512,641.1c-4.66,1-6.83,2.06-7.46,7.57a314.86,314.86,0,0,1-6.67,37.59q-.74,3-1.53,6.07a10.5,10.5,0,0,1,1.54,1.13c.14.13.27.25.39.38,4.69-.85,9.38-1.65,14.05-2.59,1.62-.33,2.45-.17,2.26,1.75a13.58,13.58,0,0,0,.07,3.66c.28,1.56-.34,2.15-1.77,2.49l-4.11,1a2.76,2.76,0,0,1,.05,1,12.64,12.64,0,0,0,.06,3.31c.26,1.4-.29,1.94-1.59,2.23-3.42.81-6.83,1.68-10.25,2.52,4.54-.51,9.09-1,13.62-1.64,3.91-.54,4.11-.67,4.27,2.71,0,.29,0,.59,0,.93.08,1.87-.45,2.52-2.33,2.84l-3.74.68a8.15,8.15,0,0,1,.24,2q7-2.41,13.69-5.5c0-1.39,0-2.78,0-4.18,0-1.05.52-1.26,1.41-1.26,2,0,3.92,0,5.89,0,0-.54,0-1.09,0-1.63s0-1.17,0-1.75c-.32,0-.66-.05-1-.06l1-.11v-3c-.75-.06-1.52-.14-2.28-.24l2.37-.2c.21-.56.73-.69,1.47-.68,2.59,0,5.18,0,7.77,0V698h2.78c1.3,0,2.6,0,3.9,0q3.45-2.35,6.83-4.91h0l1.24-1c.31-.24.61-.48.89-.74a13.4,13.4,0,0,0,2.16-2.4,14.27,14.27,0,0,0,2.14-5H528.59a3,3,0,0,1,2.65-1q14.26-.33,28.55-.67c.24-1.22.47-2.45.7-3.67a185,185,0,0,0,3.18-24.18C564.29,642.82,564.64,631.13,562.73,618.92Z" transform="translate(0 -260.94)"/><path class="cls-8" d="M603.93,594.71a202.9,202.9,0,0,1-7,35.94,234.71,234.71,0,0,1-7.73,23.45c-1.27,3.21-2.67,6.38-4.19,9.47-1.74,3.53-3.63,7-5.68,10.32-.6,1-5.76,9.41-6,9.41l-3-1.3c3.84-20.74,5.24-41.6,2.36-62.57-.64-4.69-.07-8.29,3.88-10.89,10.8-9.89,19.18-21.93,27.93-35.23l.45-.68c0,.11,0,.22,0,.33C605.44,581.07,604.57,587.9,603.93,594.71Z" transform="translate(0 -260.94)"/><path class="cls-9" d="M316.78,395.24l6.48-2.72c-.11,1.33,1,1.82,1.76,2.57-2.8,0-5.44,1.61-8.32.82A2.51,2.51,0,0,1,316.78,395.24Z" transform="translate(0 -260.94)"/><path class="cls-10" d="M397.52,377.88l7.29,3.22c.33,1.59-.94,1.48-1.86,1.79-8.59,3-16.85,6.62-24.17,12.13-1.87,1.41-3.84.94-5.87.62a162.17,162.17,0,0,0-45-1l-.22-.09-.15.19-2.54.35c-.74-.75-1.87-1.24-1.76-2.57,17.65-9.52,36.55-15.38,56.13-19.26,3-.59,5.72.9,8.51,1.65C391.14,375.78,394.32,376.88,397.52,377.88Z" transform="translate(0 -260.94)"/><polygon class="cls-11" points="327.56 133.8 327.71 133.61 327.93 133.7 327.77 133.87 327.56 133.8"/><path class="cls-12" d="M477.79,431.65" transform="translate(0 -260.94)"/><path class="cls-13" d="M456.41,420V393.72a.81.81,0,0,0-.64-.8c-3.18-.69-17.42-3.66-24.63-3.41a.82.82,0,0,0-.6,1.34L455,420.48A.81.81,0,0,0,456.41,420Z" transform="translate(0 -260.94)"/><path class="cls-14" d="M384.84,399.75c2.09-1.75,11.68-8.95,27.81-9a.32.32,0,0,1,.19.05c1.37.87,19.33,12.51,29.51,30.59a.34.34,0,0,1-.42.49l-57-21.57A.34.34,0,0,1,384.84,399.75Z" transform="translate(0 -260.94)"/><path class="cls-15" d="M540.89,470.82c.3-3.78.35-15.61-8.8-27.57a.89.89,0,0,0-.44-.3c-2.57-.71-23-6.05-44.66-1.87a.83.83,0,0,0-.24,1.54l52.92,28.85A.82.82,0,0,0,540.89,470.82Z" transform="translate(0 -260.94)"/><path class="cls-16" d="M373,407.84s-12.46,12.7-12.21,19.66c0,0,58.95,2.94,74,3.94a.64.64,0,0,0,.35-1.2C425.73,425,392.06,407.35,373,407.84Z" transform="translate(0 -260.94)"/><path class="cls-17" d="M468.11,396.74A175,175,0,0,1,493,408a.81.81,0,0,1,0,1.38l-24.76,15.83a.81.81,0,0,1-1.24-.68V397.5A.8.8,0,0,1,468.11,396.74Z" transform="translate(0 -260.94)"/><path class="cls-18" d="M541.42,485.27s-5.62,21.61-13.56,23.45c-.87,0-41.94-52.48-45.56-55.42C481.08,450.31,511.07,459.88,541.42,485.27Z" transform="translate(0 -260.94)"/><path class="cls-19" d="M523,517.57c-3.28,2-19.87,11.94-27.32,11.3a.7.7,0,0,1-.61-.52c-1.46-5.4-14.15-55.45-18.72-64.52a.71.71,0,0,1,1-.95C484,466.5,508.14,488,523.3,516.62A.71.71,0,0,1,523,517.57Z" transform="translate(0 -260.94)"/><path class="cls-20" d="M448.41,455.05a.64.64,0,0,1,1,.6c-1.25,9.38-7.73,65.6-12.09,69.12-4,3.22-33.55-14.87-38.46-17.91a.65.65,0,0,1-.14-1C403.56,500.66,439.89,461.44,448.41,455.05Z" transform="translate(0 -260.94)"/><path class="cls-21" d="M439.39,449.68a.5.5,0,0,1,.35.87c-6.74,6.31-45.4,50.28-46.54,49.94-21.43-6.35-25.22-26.15-25.46-27.55a.48.48,0,0,1,.16-.47C371.83,469.12,427.63,449.65,439.39,449.68Z" transform="translate(0 -260.94)"/><path class="cls-22" d="M427.38,440.88a.7.7,0,0,1,0,1.35c-11.43,3.48-64.66,23.6-65.12,22.54A194,194,0,0,1,353,439.08C351.74,437,413.53,437,427.38,440.88Z" transform="translate(0 -260.94)"/><path class="cls-23" d="M460.94,458.92a.7.7,0,0,1,1.31-.23c5.18,9.21,24.41,63.48,24.55,70.21.05,2-33.8-1.11-39.71-1.67a.7.7,0,0,1-.61-.89C448.31,519.48,458.86,470.59,460.94,458.92Z" transform="translate(0 -260.94)"/><path class="cls-24" d="M475.91,433.12c9.73,0,47.35.18,49.25,1.75,0,0-13.64-17.77-19.92-19.06-3.57-.74-23.47,11.4-29.79,15.84A.81.81,0,0,0,475.91,433.12Z" transform="translate(0 -260.94)"/><path class="cls-25" d="M359.31,480.74l25.39,29.53L333.24,587.8s-41.51-32.61-49.74-53.53C283.5,534.27,332.21,489.3,359.31,480.74Z" transform="translate(0 -260.94)"/><path class="cls-26" d="M349,441.53c.47,5.56.81,11.18,2.13,16.62,1.05,4.32,3,8.37,4.15,12.67l-26.57,16.06a175.33,175.33,0,0,0-19.95,13.92l-15.67,12.66-15,12.11s-13.42-14.45-8.19-57C269.92,468.54,328.07,438.34,349,441.53Z" transform="translate(0 -260.94)"/><path class="cls-27" d="M393.82,516.63l42.68,21.43-24.7,86.11s-55.3-14.18-70.32-30.9C341.48,593.27,371.41,534.11,393.82,516.63Z" transform="translate(0 -260.94)"/><path class="cls-28" d="M286,413.67s-15.44,33.2-13.25,41.43c0,0,49.27-22.64,77.31-22.64,0,0,7.47-20.91,12.48-26.11C362.5,406.35,310.53,404.15,286,413.67Z" transform="translate(0 -260.94)"/><path class="cls-29" d="M320.32,698.53c-.15.22-.29.44-.43.66-2.2,3.54-3.71,7.44-5.49,11.2a22.35,22.35,0,0,1-3.54,5.39,1.64,1.64,0,0,0-.79-.15c-2.24,0-4.49,0-6.72,0,0-.4,0-.79,0-1.19,0-1-.32-1.43-1.37-1.43-3.59.05-7.18,0-10.77,0a3.63,3.63,0,0,0-1.66.32l1.17-3.4,6.44-18.66,1.85-5.4s2.14,1.34,5.75,3.52c1.51.91,3.27,2,5.25,3.13s4.39,2.58,6.88,4Z" transform="translate(0 -260.94)"/><path class="cls-30" d="M462.13,753.34h.26l0,0Z" transform="translate(0 -260.94)"/><path class="cls-31" d="M411.71,634l-.53,1.3-.83,2-.25.62-3.82,9.33-1.63,4-1.74,4.27-2.89,7-1.37,3.36H371.8c-2.29,0-3,.76-3,3.11,0,5-.06,10,0,15,0,1.36-.4,1.9-1.76,2.13-7.6,1.32-15.09,3.1-22.6,4.79-.37.07-.91.3-1,0-.67-1.65-2.06-.95-3.13-1-5-.06-10,0-15,0-1.81,0-2.49.4-2.56,1.9-2.22-1.14-4.32-2.29-6.27-3.43q-1.22-.71-2.34-1.41c-4.65-2.9-8.27-5.77-10.17-8.47a8.27,8.27,0,0,1-1.15-2.13l34.37-72.19s6.64,3.38,16.21,7.88c2.69,1.24,5.61,2.59,8.66,4,10.18,4.6,22,9.63,32.42,13.25a123.15,123.15,0,0,0,14.24,4.15l.14,0,.11,0C410,633.68,410.85,633.84,411.71,634Z" transform="translate(0 -260.94)"/><path class="cls-32" d="M496.31,642.86l0,.12-.27,1.23-.82,3.78-10,46h0l-.64,2.93-5.75,26.4s-69.27,3.62-88.16-8.44l9.77-26.09c8.76-1.18,17.54-2.14,26.37-2.74,6.39-.43,12.76-1.07,19.2-.77a56.54,56.54,0,0,1,8.65,1.12c0-.61,0-1.3,0-2,0-.47,0-.95,0-1.45,0-3.51,0-7.59,0-9.32,0-1.94-.42-2.8-1.77-3.07v-1.37c0-2.56-.69-3.31-3.22-3.31H409l1.26-3.36,2.38-6.36.16-.42,5.63-15.08,1.08-2.87s2.2.38,5.92,1l.34,0h0c3.14.48,7.3,1.09,12.09,1.72h0c12.64,1.64,29.67,3.41,44,3.32,1,0,2,0,2.93,0h0c2.78-.07,5.44-.22,7.91-.47C494,643.19,495.16,643,496.31,642.86Z" transform="translate(0 -260.94)"/><path class="cls-33" d="M288.94,679.18l-1,2.61-4.88,12.74L272.5,722.1s-8.13-9.3-18.09-22.43c-3.2-4.21-6.58-8.81-9.93-13.61-11.09-15.9-22-34.14-25.26-48.28l9.3-21.73S278.86,676.07,288.94,679.18Z" transform="translate(0 -260.94)"/><path class="cls-34" d="M208.77,558.73s10.45,44.42,15.49,45.44l-8.85,14.75S206.44,568.8,208.77,558.73Z" transform="translate(0 -260.94)"/><path class="cls-35" d="M269.85,429.73s-38.62,46.06-43.66,66.12c0,0,26.73-30.13,34.86-32.62C261.05,463.23,267.91,433.69,269.85,429.73Z" transform="translate(0 -260.94)"/><path class="cls-36" d="M446.45,540.14s34,2.71,41.24,1.93,8.62,89.85,8.62,89.85-60.59,2.54-69.11-3.95C427.2,628,442.47,544.4,446.45,540.14Z" transform="translate(0 -260.94)"/><path class="cls-37" d="M505.62,622a.52.52,0,0,1,0,.22Z" transform="translate(0 -260.94)"/><path class="cls-38" d="M560.93,603.53c0-.25-.07-.52-.12-.77A90.73,90.73,0,0,0,558,590.5c-8.5-29.2-30.15-64.94-30.15-64.94-3.1,4.8-28,14.57-28,14.57l5,71.22.4,5.55.32,4.56a1.4,1.4,0,0,1,1.54-1.37c.78-.05.53.71.56,1.18a1.55,1.55,0,0,1-1.59,1.84.56.56,0,0,1-.4-.12l.51,7.38A86.07,86.07,0,0,0,520.81,627c1.09-.36,2.17-.72,3.24-1.1A146.51,146.51,0,0,0,559,607.39c.72-.51,1.27-.93,1.64-1.2s.56-.44.56-.44C561.13,605,561,604.28,560.93,603.53Zm-54,14c-.85.09-.73-.66-.75-1.2a1.66,1.66,0,0,1,1.52-2c.92-.14.79.53.8,1.22A1.6,1.6,0,0,1,507,617.54Zm4.78,3.68c-.79.07-.67-.61-.69-1.1a1.53,1.53,0,0,1,1.38-1.85c.85-.13.74.5.75,1.12A1.47,1.47,0,0,1,511.73,621.22Zm1.29-5.7c-1.07.1-.76-.72-.82-1.12-.09-1.34.54-2,1.63-2s.58.88.64,1.38A1.43,1.43,0,0,1,513,615.52Zm4.28,3.84c-1,.09-.7-.67-.75-1-.08-1.22.49-1.81,1.5-1.87s.53.81.59,1.27A1.33,1.33,0,0,1,517.3,619.36Zm1.61-5.83c-1.06,0-.58-.91-.65-1.44-.17-1.14.6-1.63,1.54-1.75,1.16-.16.49.87.7,1.15C520.63,612.84,520,613.51,518.91,613.53Zm3.8,4c-1,0-.53-.83-.6-1.32-.15-1.05.55-1.49,1.41-1.62,1.07-.14.46.81.65,1.06C524.29,616.9,523.74,617.51,522.71,617.53Zm2.17-6c-.86.05-.52-.81-.6-1.31a1.6,1.6,0,0,1,1.58-1.94c1-.13.61.72.67.91C526.72,610.79,526,611.5,524.88,611.56Zm3.32,4.17c-.79,0-.49-.76-.55-1.21a1.45,1.45,0,0,1,1.44-1.78c.89-.12.56.65.62.83C529.88,615,529.26,615.66,528.2,615.73Zm2.8-6.17c-.91.1-.69-.7-.74-1.2a1.64,1.64,0,0,1,1.49-2c.9-.14.84.49.83,1.23A1.64,1.64,0,0,1,531,609.56Zm2.81,4.32c-.84.1-.63-.64-.68-1.1a1.51,1.51,0,0,1,1.37-1.85c.83-.13.77.45.76,1.12A1.5,1.5,0,0,1,533.81,613.88Z" transform="translate(0 -260.94)"/><path class="cls-39" d="M600.31,558.72s-7.95,22.86-29.92,38c0,0-1.5-4.89-4-12.21-6.66-20-20.39-58.07-30-64.86,0,0,12.39-15.38,13.94-23.76,0,0,47.18,45.31,49.93,62.7A.51.51,0,0,1,600.31,558.72Z" transform="translate(0 -260.94)"/><path class="cls-40" d="M547.26,452.77s5.9,16,6.19,31.21c0,0,43.33,44.93,51.68,59.64,0,0-11.62-58.09-28.94-77.46Z" transform="translate(0 -260.94)"/><path class="cls-41" d="M506.59,406.35l8.65-2.39s-14.56-13.7-48.2-22.61l-.41,6.19Z" transform="translate(0 -260.94)"/><path class="cls-42" d="M541,441.55l24.71,8.6S554,429.83,526.56,410.06a2.38,2.38,0,0,0-2.4-.22L518,412.76a1.22,1.22,0,0,0-.39,1.9Z" transform="translate(0 -260.94)"/><path class="cls-43" d="M401.23,373.13s12.6,5.43,13.9,8.22-1.57,0-1.57,0,32.62-1.59,41.95,3.2v-6.92S418.17,369.5,401.23,373.13Z" transform="translate(0 -260.94)"/><path class="cls-44" d="M384,775.45c-.14.24-.44.33-.58.17s.18-.28.28-.43Z" transform="translate(0 -260.94)"/><path class="cls-45" d="M468.58,739.66l-.31.29Z" transform="translate(0 -260.94)"/><path class="cls-46" d="M469.82,735.74h0Zm0,0h0Zm0,0h0Zm0,0h0Zm0,0h0Zm0,0h0Zm0,0h0Zm135.31,4.78a50.46,50.46,0,0,0-.92-10.07c-.85-4-.2-8.13-1.33-12.31-1.81-6.63-2.43-13.59-4.32-20.25a19.4,19.4,0,0,0-18.48-13.84H528.59a3,3,0,0,1,2.65-1q14.26-.33,28.55-.67c2.08,0,4.15-.1,6.23-.15l1.72,0c.68,0,1.75.5,2-.54.19-.86-.51-1.59-1.25-2.05l-.05,0a3.78,3.78,0,0,0-1.71-.68l-6.22-.16h0c-12.29-.09-24.59,0-36.89-.07a17.2,17.2,0,0,0-5.52.89c-5.26,1.77-10.55,3.49-15.79,5.34-.72.26-1.43.49-2.15.73l-2.23.72a65.49,65.49,0,0,0-7.79,2.87,4.28,4.28,0,0,0,1.94,1.13,47.59,47.59,0,0,1,4.32,2.07,10.5,10.5,0,0,1,1.54,1.13c.14.13.27.25.39.38,4.69-.85,9.38-1.65,14.05-2.59,1.62-.33,2.45-.17,2.26,1.75a13.58,13.58,0,0,0,.07,3.66c.28,1.56-.34,2.15-1.77,2.49l-4.11,1c-3.14.77-6.26,1.57-9.39,2.33a9.58,9.58,0,0,1-1.51.18c-.78,1.64-1.91,3.08-2.82,4.65a12.18,12.18,0,0,0-1.07,2.28h0l3.06-.35c4.54-.51,9.09-1,13.62-1.64,3.91-.54,4.11-.67,4.27,2.71,0,.29,0,.59,0,.93.08,1.87-.45,2.52-2.33,2.84l-3.74.68c-6.92,1.27-13.83,2.66-20.74,4-.43.08-.86.34-1.22-.13q-2.9,3.27-5.77,6.55c4.19-.13,8.39-.22,12.58-.39,5-.2,10.07-.43,15.1-.66l1.17,0c.64,0,1.29,0,1.93-.08,2.62-.24,3.15-.29,3.27,1.43h0c0,.43,0,1,0,1.65,0,3.26,0,3.36-3.18,3.77l-2.67.34c-7,.9-14.1,1.71-21.15,2.57l-4.43.55-10.55,1.28c-1.14.13-2.29.09-3.43.13l-.34.32-.16.12a5.28,5.28,0,0,0-.44.36.28.28,0,0,0-.1.09h0a17.49,17.49,0,0,0-1.92,1.93c-.31.34-.59.67-.88,1l1.57.07.36,0c4.12.2,8.26.38,12.39.57l.87,0q6.56.29,13.1.61c6.08.3,12.16.66,18.24,1l.58,0,1.13.06c1,0,1.46.34,1.36,1.35,0,.12,0,.26,0,.39-.09,1.79.78,4-.28,5.27s-3.29.4-5,.46q-6.42.23-12.86.42l-10.41.32-10.39.32-13.67.44-4.16.14h-.09c-.5,0-.9.06-1.07-.51l-.1.09a3.27,3.27,0,0,0-.71,1.69c.34.09.67.17,1,.24,1.37.32,2.75.56,4.14.76h.11l.24,0c2.76.37,5.52.62,8.27,1l3.19.44.83.11c2.89.4,5.8.78,8.69,1.16.47,0,.92.12,1.39.18h0c3.55.45,7.12.91,10.67,1.39,8,1.07,16,2.19,24,3.31,1,.13,1.46-.12,1.4-1.2a28.68,28.68,0,0,1,.36-6c.49-3.14.93-6.36,3.25-8.75a4.22,4.22,0,0,0,1.19-3.28c0-1.53-.31-3.14.41-5,.81,1.44.42,2.64.62,3.73.42,2.18,1,4.46-1.26,6.16a4.4,4.4,0,0,0-1,1.64c-2,4.09-2.08,8.47-2.07,12.89,0,1.55.46,2.6,2.11,2.56s1-1.52,1-2.37a30.82,30.82,0,0,1,1.2-10.16c1.11-3.31,3.65-5,6.6-4.55-4,2-5.19,3.54-6.16,7.55a32.53,32.53,0,0,0-.44,9.08c0,1.17,1.17,2.61.32,3.39s-2.34,0-3.55-.15l-30.09-3.08c-1.83-.18-3.67-.3-5.5-.45,11.1,3.21,22.2,6.17,33.34,9,5.48,1.38,10.83,3.45,16.68,3.12,3.17-.18,5.34-1.44,6.43-4.35a2,2,0,0,1,2.13-1.45q13.79-.13,27.57-.41a2.79,2.79,0,0,1,2.49,1.14,6.68,6.68,0,0,0,6.07,2.78,21.53,21.53,0,0,1,3.5,0,5.64,5.64,0,0,0,5.39-2.8,2.57,2.57,0,0,1,2.2-1.27c2.19-.15,4.38-.33,6.56-.61,2.51-.32,3.38-1.36,3.38-3.85,0-6.29,0-12.57,0-18.86,0-.61-.3-1.38.38-1.78C605.19,742.86,605.14,741.7,605.13,740.52Zm-42-42.8H574.6v-.13c6.47,0,12.94,0,19.42,0,1.44,0,2,.41,2.31,1.85,1.28,6.2,2,12.49,2.91,18.74.18,1.29-.58,1.34-1.5,1.38-4.27.11-8.53.21-12.8.4-9.44.41-18.89.21-28.33.28-1.75,0-2.28-.72-2.34-2.25-.08-2.38-.19-4.75-.33-7.13-.09-1.8-.22-3.59-.37-5.38l-.06-.78h0c0-.16,0-.31,0-.47-.13-1.54-.27-3.07-.43-4.6s.23-1.92,1.75-1.91C557.57,697.71,560.33,697.72,563.11,697.72Zm35.42,32.22c-.67,1.93-.67,1.94-2.36,2-9,.23-17.95.38-26.92.74-2.4.09-3.94-1.07-5.61-2.52,11.13,1.34,22.14-.13,33.14.19A3.1,3.1,0,0,0,598.53,729.94Zm-39.78,13.22c-.82,0-1.5-.38-1.55-1-.17-2-.18-4-.22-6,0-.33.23-.65.64-.48a1.36,1.36,0,0,1,.89,1.14A33.27,33.27,0,0,1,558.75,743.16Zm-24.69,24.89c-1.26.41-2.09-.35-2.76-1.29-1.51-2.08-1.62-4.56-1.85-7,.23-1.9.38-3.79,1.52-5.39.81-1.14,1.89-1.6,3.15-.74.68.46,1.29.78,0,1.74-2.47,1.93-1.91,4.89-1.63,7.57a5.11,5.11,0,0,0,1.88,3.72C535.6,767.55,534.71,767.84,534.06,768.05Zm-3-25.69c-.88,0-1.68.12-1.64-1.21s.83-1.08,1.6-1.1c6-.12,9.64,2.63,10.73,8.08C539.42,743.86,535.69,742.28,531.09,742.36Zm15.24-6.73c-5.15-.47-10.3-.69-15.47-1.2,4-.32,7.94-.69,11.92-.9,1.3-.07,1.77-.41,1.75-1.79,0-3.31,0-3.31-3.24-4.2-1.73-.47-3.45-.93-5.18-1.42l-1.48-.44c-1.38-.4-2.75-.83-4.12-1.3l4.78.75h0l1.69.26,2.42.41c2.45.42,4.89,1,7.35,1.38.85.14.84.64.84,1.24,0,2,0,4,0,6C547.62,735.39,547.21,735.72,546.33,735.63Zm1.32-16.88-2-.58-1.84-.53c-1.3-.38-2.61-.76-3.91-1.12q-3-.85-6-1.68l-1.12-.32c-2.06-.56-2.48-2.22-2.54-3.9s-.07-3.18-.07-4.78c0-.54,0-1.09,0-1.63s0-1.17,0-1.75v-.17c0-.91,0-1.82,0-2.74a2.44,2.44,0,0,1,0-.27,1.7,1.7,0,0,1,.09-.44c.21-.56.73-.69,1.47-.68,2.59,0,5.18,0,7.77,0V698h2.78c1.3,0,2.6,0,3.9,0l1.08,0c1.16,0,1.55.33,1.62,1.52.14,2.43.19,4.87.22,7.31,0,2.77,0,5.54.08,8.3,0,.82,0,1.62.05,2.43C549.24,718.83,548.92,719.13,547.65,718.75Zm17.35,38c-2.14-.06-4.28,0-6.41,0s-4.27,0-6.4,0c-1.08,0-1.46-.43-1.53-1.5-.28-4.32-.32-4.32,4.06-4.31,2.21,0,4.41,0,6.6,0a4.86,4.86,0,0,1,4.87,4.38C566.33,756.25,566.09,756.73,565,756.71Zm30-13.15c-7.48.29-15,.55-22.43,1.06-2.45.18-4-1-5.62-2.44,4.43,1.6,9,.45,13.43.52s9.16-.22,13.74-.39c1.09,0,2.17-.23,3.32-.36A2.33,2.33,0,0,1,595,743.56Zm.46-5.44c-7.89.17-15.77.36-23.65.74a7.24,7.24,0,0,1-6.42-2.62c5.72,1.74,11.41.49,17.05.58,4.64,0,9.3-.34,13.94-.55.51,0,1-.12,1.57-.18C597.55,737.33,597,738.08,595.5,738.12Zm7.34,14.13c-.41,1,.78,2.86-1.46,2.93-1,.05-2.45.53-2.93-.3s.12-2.22.65-3.27l.1-.16a3,3,0,0,1,3.15-1.8C603.35,749.88,602.51,751.36,602.84,752.25Zm.64-15.82a13.65,13.65,0,0,1,0,1.92h0c0,1,0,1.94,0,2.9a1.18,1.18,0,0,1-1.32,1.13c-.87,0-.55-.73-.56-1.16,0-1.54,0-3.08,0-4.63,0-.94.31-1.83,1.28-1.83S603.4,735.83,603.48,736.43Zm-133.66-.69h0Zm0,0h0Zm0,0h0Zm0,0h0Zm0,0h0Zm0,0h0Zm0,0h0Zm0,0h0Z" transform="translate(0 -260.94)"/><path class="cls-46" d="M563.08,603.22c-.75-.17-1.5-.33-2.27-.46a20.72,20.72,0,0,0-2.4-.27l-.36,0a43.34,43.34,0,0,0-11.12,1.15c-.36.08-1,.71-1.25-.13a1.14,1.14,0,0,1,.66-1.41,6.15,6.15,0,0,1,2.55-.7c.63-.06,1.36.15,2.11-.52a14.26,14.26,0,0,0-9.58-.45c-.95.26-1.87.82-2.94.49-1.3,1.18-3,1.17-4.59,1.61-.59.2-1.19.41-1.79.6l-27.24,8.24-4.95,1.5c-1.34.41-2.69.81-4,1.23l-6,1.82L486,617.07a5.27,5.27,0,0,1-2.61.21c-17.45-3.23-34.9-6.4-52.35-9.67q-6.22-1.15-12.44-2.34l-1.3-.24-9.18-1.75a32.62,32.62,0,0,0-4.78-.62,14.91,14.91,0,0,0-8.83,2.12,42.09,42.09,0,0,1-4.17,1.83c-.93.45-2,.57-2.82,1.43.19.09.3.16.41.2l12.41,4.85,13.17,5.15,2.46,1,12,4.69,10.69,4.16a15.53,15.53,0,0,1,2.44,1.24h0c1.12.68,2.19,1.48,3.32,2.28.42.29.84.59,1.27.87-6.54,2.07-12.88,4.08-19.19,6.1l-.75.24h0c-2,.62-3.92,1.26-5.88,1.89a2,2,0,0,1-1.46,0,3.33,3.33,0,0,1-.74-.45L413,636.62l-1.78-1.35c-.8-.61-1.62-1.22-2.42-1.84-3-2.27-6-4.55-8.91-6.88a4.57,4.57,0,0,0-4.78-.88c-1.27.4-1.6.72-1.11,2l.56,1.57.58,1.62c.49,1.39,1,2.78,1.46,4.16,1.14,3.28,2.28,6.55,3.45,9.82.55,1.49.28,1.74-1.3,1.59l-6.59-.58c-6.14-.53-12.29-1-18.44-1.52-2-.17-3.64.65-5.63,1.35,7.6,1.53,15,3,22.31,4.48l3.52.72c.63.12,1,0,.84,1.1a2.25,2.25,0,0,0,2.2,2.84l2.28.27c1.23.13,2.47.25,3.71.35,2.29.2,4.58.35,6.89.51l2.82.16a134.49,134.49,0,0,0,28.27-1.65c8.44-1.42,16.65-3.8,24.9-6,1.32-.35,1.53-.15,1.25,1.15-.89,4.2-1.69,8.42-2.58,12.91,2.53-.56,4.84-1.18,7.19-1.55a6.65,6.65,0,0,0,3.6-1.9c3.27-3,6.6-5.95,9.9-8.92l3.79-3.44,3.75-3.39,1.43-1.29c-.06-.13-.1-.27-.16-.4l-4.12,1-5.06,1.2h0l-8.13,1.9c1.72-.69,3.46-1.3,5.2-1.86,2.77-.9,5.54-1.7,8.3-2.57l1.72-.56c7.42-2.49,14.94-4.65,22.38-7.06,10.16-3.31,20.33-6.55,30.27-10.47a13.49,13.49,0,0,1,3.74-1.71c4.49-2.47,9-4.79,13-8.14a11.13,11.13,0,0,0,4.07-6.73C565.73,604.37,565.27,603.72,563.08,603.22ZM502.55,617.6a1.69,1.69,0,0,1-1.74,2,.59.59,0,0,1-.44-.13c-.22-.18-.08-.58-.06-.87a.45.45,0,0,0,0-.24h0s0,0,0,0a3.86,3.86,0,0,1,0-.47h0a1.53,1.53,0,0,1,1.68-1.49C502.78,616.27,502.51,617.09,502.55,617.6Zm29.2-11.26c.9-.14.84.49.83,1.23a1.64,1.64,0,0,1-1.58,2c-.91.1-.69-.7-.74-1.2A1.64,1.64,0,0,1,531.75,606.34Zm-5.89,2c1-.13.61.72.67.91.19,1.57-.5,2.28-1.65,2.34-.86.05-.52-.81-.6-1.31A1.6,1.6,0,0,1,525.86,608.31Zm-7.6,3.78c-.17-1.14.6-1.63,1.54-1.75,1.16-.16.49.87.7,1.15.13,1.35-.46,2-1.59,2S518.33,612.62,518.26,612.09Zm-4.43.27c1.13-.07.58.88.64,1.38a1.43,1.43,0,0,1-1.45,1.78c-1.07.1-.76-.72-.82-1.12C512.11,613.06,512.74,612.42,513.83,612.36Zm-6.11,2c.92-.14.79.53.8,1.22a1.6,1.6,0,0,1-1.57,2c-.85.09-.73-.66-.75-1.2A1.66,1.66,0,0,1,507.72,614.34Z" transform="translate(0 -260.94)"/><path class="cls-46" d="M375.68,776.9c-4-.62-7.55,1-11.28,1.77a24.19,24.19,0,0,1-10.7-.56c-.24-.06-.42-.33-.61-.66,5.41.83,10.51-1.1,15.76-1.45A16.79,16.79,0,0,1,375.68,776.9Z" transform="translate(0 -260.94)"/><path class="cls-46" d="M456.48,683.41c0,.41,0,.78,0,1.11l-1.88-.12-1.75-.12c0-.44,0-1,0-1.72,0-3.29,0-8.89-.05-12v-1.37c0-2.56-.69-3.31-3.22-3.31H371.8c-2.29,0-3,.76-3,3.11,0,5-.06,10,0,15,0,1.36-.4,1.9-1.76,2.13-7.6,1.32-15.09,3.1-22.6,4.79-.37.07-.91.3-1,0-.67-1.65-2.06-.95-3.13-1-5-.06-10,0-15,0-1.81,0-2.49.4-2.56,1.9v0c0,.19,0,.42,0,.66a7,7,0,0,1-1.63,4.8c-.3.41-.58.81-.85,1.23-.15.22-.29.44-.43.66-2.2,3.54-3.71,7.44-5.49,11.2a22.35,22.35,0,0,1-3.54,5.39,26.83,26.83,0,0,1-5.57,4.8c-1.57,1-1.92.79-1.93-1,0-1.31,0-2.61,0-3.91,0-.4,0-.79,0-1.19,0-1-.32-1.43-1.37-1.43-3.59.05-7.18,0-10.77,0a3.63,3.63,0,0,0-1.66.32c-.77.38-1.06,1.16-1.07,2.48v.62c0,3.09,0,6.16,0,9.24a1.55,1.55,0,0,1-1.18,1.73l-3,1.15q-3.35,1.27-6.68,2.58L270.51,734c-1.13.44-1.47.25-1.45-1,.08-3.52,0-7.06,0-10.58a3.53,3.53,0,0,1,1.23-2.83,4.91,4.91,0,0,1,.51-.39l3.7-2.36,5.08-3.23,3.93-2.53a6.48,6.48,0,0,1,3.78-1.07h3.42c3.67,0,7.33,0,11,0,1.29,0,1.67-.4,1.64-1.67-.08-3,0-6-.05-8.94a4.22,4.22,0,0,1,2.15-3.94l3.65-2.33.9-.57c2.06-1.31,4.1-2.62,6.13-4l.36-.24,1.52-1,6.07-.75c5.78-.05,11.56-.06,17.34,0,1.39,0,1.81-.45,1.75-1.79-.09-2.13,0-4.26,0-6.38a3.79,3.79,0,0,1,1.85-3.55q9.6-6,19.25-11.86a4.48,4.48,0,0,1,2.47-.51H451.8c3.23,0,4.64,1.45,4.65,4.71S456.52,679.15,456.48,683.41Z" transform="translate(0 -260.94)"/><path class="cls-46" d="M495.17,701.77a8.26,8.26,0,0,0-.74-2.36,5.94,5.94,0,0,0-.33-.67l-.36-.35c-1.59-1.44-3.61-2.11-5.51-3a4.14,4.14,0,0,1-1.82-1.06,2.25,2.25,0,0,1-1.25-.29h0l-.48-.22-.63-.27q-9.17-4.1-18.64-7.39c-3-1-5.92-2-8.93-2.74-.63-.17-1.26-.32-1.9-.46s-1.17-.27-1.75-.39a60.11,60.11,0,0,0-9-1.17c-6.72-.32-13.36.36-20,.81-9.21.63-18.37,1.62-27.51,2.85q-6.19.84-12.37,1.81c-2.74.42-5.48.87-8.22,1.33l-1.6.28c-8.46,1.43-16.86,3.11-25.22,5q-7.32,1.63-14.6,3.43L329.75,698a14.22,14.22,0,0,0-5.62,2.67l-.58.52a10.77,10.77,0,0,0-2.14,2.81c-2.13,4-4.22,8.07-6.1,12.21a12.61,12.61,0,0,1-3.95,4.93,14.73,14.73,0,0,1-3.66,2L297.14,727q-6.06,2.25-12.13,4.48l-4.78,1.76-16.39,6c-3.6,1.33-3.6,1.36-2.92,5.18,1.16,6.42,4.3,11.83,8.54,16.64,1.24,1.41,1.62,2.19-.23,3.3a4.56,4.56,0,0,0-2.31,3,26.26,26.26,0,0,1,10.85-4.05c5.73-.87,11.32.36,16.9,1.32,5.39.93,10.73,2.14,16.07,3.39,3.22.75,6.55,1.08,9.8,1.7,5,1,10.14,1.71,15.2,2.54a101.77,101.77,0,0,0,12.23,1.2c-6.91-2.12-13.75-2.75-20.28-5.45l38.36.54c1.82,0,3.64.06,5.46.07q8.94.15,17.94.27l-.44.2a54.46,54.46,0,0,0-8.75,5l-1.45,1.06.3.27c1.3-.31,2.58-.66,3.84-1.06s2.32-.74,3.46-1.14h0c2.47-.84,4.91-1.74,7.39-2.51,6.13-1.91,12.37-3.19,18.84-2.51l1.4.15h.07c6.38.77,12.67,2.13,19,3.13h0c8.13,1.28,16.26,2.72,24.5,2.72a62.8,62.8,0,0,0,6.56-.34,41,41,0,0,0,9.62-1.77c-8-.49-16-1-24-2.08a3,3,0,0,0,.38-.79h0a3.08,3.08,0,0,0,.13-.66,6,6,0,0,0-.29-1.92,24.37,24.37,0,0,0-1.94-4.7,61.94,61.94,0,0,0-7.73-10.8c-2.34-2.78-3.14-6-2.88-10.07a26.34,26.34,0,0,0,2.53,5.16h0a24,24,0,0,0,5,5.55,60.17,60.17,0,0,1,7,7.5c.17-.3.33-.59.48-.89h0c.83-1.7,1.41-3.43,2.7-4.74a3,3,0,0,1,.67-1.59L456,752h0a58.12,58.12,0,0,1,7.84-10.3,22.14,22.14,0,0,1,2.62-2.77h0a3.54,3.54,0,0,1,.47-.38l.19-.16a2.94,2.94,0,0,0,.31-.3h0c.52-.53,1-1,1.57-1.56l.48-.47h0c2.79-2.7,5.7-5.28,8.61-7.87l5.43-6.15,4.69-6.18.75-1c.37-.48.55-1.09,1.17-1.33h0c.79-2.41,2.57-4.26,3.64-6.52a7.76,7.76,0,0,0,1.35-2.76A6.33,6.33,0,0,0,495.17,701.77ZM353.82,699c0-.73.57-.69,1-.79,3.13-.71,6.26-1.42,9.4-2.11.26-.06.54-.33.82-.05.45.41-.46,4.28-1.07,4.43-3,.71-6,1.41-9,2.11l-1.43.33v0A16.61,16.61,0,0,1,353.82,699Zm-15.7,3.6c0-.74.51-.85,1.06-1l3.4-.8c.29-.07.6-.13.89-.21h0l4.69-1.11c.95-.23,1.31-.11,1.14,1,0,.12,0,.23-.05.33s-.07.41-.09.6a10.36,10.36,0,0,1-.27,1.25,2.39,2.39,0,0,1-.21.48.47.47,0,0,1-.06.09.61.61,0,0,1,0,.06.93.93,0,0,1-.16.18,2.06,2.06,0,0,1-.59.37,4.21,4.21,0,0,1-.61.22l-1.52.38-7.88,1.84C337.94,705,338.08,703.8,338.12,702.6Z" transform="translate(0 -260.94)"/><path class="cls-47" d="M211,543.09a37.77,37.77,0,0,0-11.49,10.74,47.44,47.44,0,0,0-7,14.06,34.58,34.58,0,0,0-1.29,15.35,22.24,22.24,0,0,0,2.46,7.11c.28.56.66,1,1,1.58s.76,1.05,1.14,1.56c.8,1,1.62,2,2.5,3a58.94,58.94,0,0,0,12,9.94,91,91,0,0,0,14,7.13,208.34,208.34,0,0,0,30.29,9.38c20.65,5,41.83,7,63,9.27,5.29.54,10.59,1.08,15.91,1.53s10.63.95,16,1.47c10.65,1,21.32,1.95,32,3.33l0,.66c-10.73.53-21.45.73-32.18.67q-4,0-8-.09c-2.69,0-5.37-.1-8.06-.19q-8-.29-16.1-.8A324.87,324.87,0,0,1,253.28,628a212.51,212.51,0,0,1-30.67-10.57,95.33,95.33,0,0,1-14.34-7.89A60.43,60.43,0,0,1,196,598.55c-.89-1-1.72-2.16-2.53-3.28-.39-.57-.78-1.13-1.16-1.72s-.77-1.21-1.07-1.86a25,25,0,0,1-2.47-8.08,36.75,36.75,0,0,1,2-16.32A48.8,48.8,0,0,1,198.45,553a38.9,38.9,0,0,1,12.26-10.5Z" transform="translate(0 -260.94)"/><path class="cls-47" d="M209,525.3A37.92,37.92,0,0,0,197.49,536a47.18,47.18,0,0,0-7,14.06,34.61,34.61,0,0,0-1.3,15.35,22.49,22.49,0,0,0,2.46,7.11c.28.56.67,1.05,1,1.58s.76,1.05,1.15,1.57c.8,1,1.62,2,2.5,3a58.23,58.23,0,0,0,11.95,9.94,90.56,90.56,0,0,0,14,7.13,208.72,208.72,0,0,0,30.29,9.38c20.65,5,41.83,7,63,9.27,5.3.55,10.6,1.08,15.92,1.53s10.63,1,15.95,1.47c10.65,1,21.32,2,32,3.33l0,.66c-10.73.53-21.44.73-32.17.68-2.68,0-5.37,0-8.05-.1s-5.37-.1-8.05-.19Q323,621.5,315,621a324.77,324.77,0,0,1-63.7-10.82,213.26,213.26,0,0,1-30.67-10.56,95.49,95.49,0,0,1-14.35-7.9,60.11,60.11,0,0,1-12.3-10.94c-.9-1-1.73-2.16-2.54-3.27-.39-.57-.78-1.13-1.16-1.72s-.77-1.22-1.06-1.87a24.75,24.75,0,0,1-2.48-8.08,36.84,36.84,0,0,1,2-16.31,48.7,48.7,0,0,1,7.76-14.29,39,39,0,0,1,12.26-10.5Z" transform="translate(0 -260.94)"/></svg>